<svg xmlns="http://www.w3.org/2000/svg" viewBox="0 0 192 192"><defs><style>.cls-1{fill:#fff;}.cls-2{fill:#4398b6;}.cls-3{fill:#5ba0bc;}.cls-4{fill:#fbfdfd;}</style></defs><title>1</title><g id="Layer_2" data-name="Layer 2"><g id="Layer_1-2" data-name="Layer 1"><path class="cls-1" d="M98.48.08c30,0,60,.06,90-.08,3,0,3.57.6,3.56,3.56q-.17,92.45,0,184.88c0,3-.6,3.57-3.56,3.56q-94.18-.17-188.36-.08V98.49C4.51,104.29,9.46,110.14,8,118c-1.84,9.83,1.36,17.25,9.23,22.86a15.75,15.75,0,0,1,6.39,9.68c2.11,9.16,7.67,14.77,16.86,16.82a15.44,15.44,0,0,1,8.62,5.48,53.8,53.8,0,0,0,6.32,6.31c4.11,3.52,8.88,5.24,14.27,4.09a17.58,17.58,0,0,1,13.38,2c8.45,5.13,16.76,5.37,25.07-.46,3.3-2.31,7.12-2.5,11-1.71,8.51,1.73,15.45-1,20.53-7.85a20.9,20.9,0,0,1,12.42-8.35c7.82-1.84,12.74-6.75,14.73-14.51a21,21,0,0,1,7.2-11.54c7.3-5.94,11.38-13.17,8.86-23.06-.85-3.33.51-6.56,2.24-9.46,5.15-8.6,5.67-17-.35-25.53-2.21-3.12-2.49-6.83-1.71-10.51,1.91-8.93-1.08-16.05-8.25-21.31A19.6,19.6,0,0,1,167,39.31C165,31.16,160,26,151.76,24a19,19,0,0,1-10.67-6.77A41.49,41.49,0,0,0,135.82,12c-4.09-3.51-8.82-5.46-14.2-4.31s-10.28.46-14.71-2.57C104.19,3.27,99.86,4.12,98.48.08Z"/><path class="cls-2" d="M98.48.08c4.46,2.09,8.92,4.15,13.36,6.28,2.74,1.33,5.55.69,8.27.22,7.69-1.34,14.24.73,19.13,6.75,4.19,5.17,9,8.84,15.63,10.4S165.79,30,167.48,36.55a25.6,25.6,0,0,0,10.15,15.16c6.13,4.45,8.18,11.2,7,18.55-.9,5.36-.24,10,2.76,14.6,4.34,6.65,4.58,13.73.45,20.59a23.25,23.25,0,0,0-3.19,17c1.21,6.83-1.69,12.79-7.16,17a26.29,26.29,0,0,0-10.09,15.25c-1.69,7-6.79,11.22-13.65,13.09-5.39,1.46-10,3.64-13.33,8.56-4.85,7.14-12.09,9.59-20.45,8.13A17.33,17.33,0,0,0,106.73,187c-7.15,4.68-14.58,4.89-21.92.4a21,21,0,0,0-15.59-2.86c-6.82,1.27-12.91-1.22-17.23-6.64s-9.19-9.06-16-10.7-11-6.68-12.69-13.38c-1.49-5.83-4.22-10.45-9.29-14a17.63,17.63,0,0,1-7.64-17.77c1-6.4.32-12-3.46-17.39C1.61,102.86,1,100.56.08,98.49v-6A41.41,41.41,0,0,1,4.35,80a11.93,11.93,0,0,0,1-8.7,19.27,19.27,0,0,1,5.95-19c5.54-5.18,9.92-10.77,12-18.32,1.78-6.31,7-10,13.2-11.69a25.71,25.71,0,0,0,14-9.48A20.42,20.42,0,0,1,70.9,5.15c4.67.83,8.9.52,12.74-2.36,2.65-2,6-1.53,8.88-2.71Z"/><path class="cls-1" d="M92.52.08c-4.11,2-8.25,4-12.31,6.07-2.73,1.4-5.53.87-8.25.41-9-1.5-16.49.9-21.7,8.5-3,4.41-7.09,6.64-12,7.86C29.9,25,24.76,30.27,22.83,38.61a17,17,0,0,1-6.65,10.57C8.1,55.05,4.5,62.81,6.85,72.91a11.75,11.75,0,0,1-1.56,8.54C3.33,85,1.8,88.82.08,92.52.08,62.78.13,33,0,3.31,0,.56.55,0,3.3,0,33,.13,62.78.08,92.52.08Z"/><path class="cls-1" d="M74,14.25c4.3,1.38,9.2-.85,13.91-3.88,5-3.18,10-3.26,15-.13,5.65,3.56,11.55,5.25,18.31,3.79,5.93-1.27,10.82.89,14.17,6A22.52,22.52,0,0,0,150.6,30c5.32,1,9,4.33,10.2,9.68,1.63,7.27,5.11,13,11.51,17.12,3.78,2.4,5.38,6.24,4.85,10.74-.95,8.06-.43,15.66,4.52,22.65,2.45,3.47,2,7.71-.28,11.33-4,6.39-6,13-4.38,20.64,1.16,5.42-1.15,9.81-5.61,12.86a24,24,0,0,0-10.56,16,11.82,11.82,0,0,1-9.54,9.73c-7.26,1.63-13,5.11-17.11,11.51-2.41,3.77-6.25,5.38-10.75,4.85-8.06-.94-15.65-.41-22.66,4.52-3.65,2.56-8,1.83-11.77-.51-6.09-3.76-12.42-5.75-19.71-4.17-5.8,1.26-10.46-1.15-13.67-6a22.59,22.59,0,0,0-15.23-10c-5.33-1-9-4.33-10.21-9.68-1.63-7.27-5.11-13-11.51-17.12-3.77-2.4-5.38-6.24-4.85-10.75.94-8,.43-15.65-4.52-22.64-2.45-3.47-2-7.71.28-11.33,4-6.4,6-13,4.38-20.65C12.82,63.4,15.13,59,19.6,56a24,24,0,0,0,10.56-16,11.81,11.81,0,0,1,9.53-9.73c7.27-1.63,13-5.14,17.11-11.52C60.58,12.82,66.68,13.58,74,14.25Z"/><path class="cls-2" d="M95.55,162.31c33.6-.1,61.42-24.5,66.31-58.24,4.57-31.51-15.4-62.61-46.43-72.32-.48-.15-.94-.36-1.41-.48-2.92-.75-6.59-1.3-5.27-5.47s4.88-2.35,7.6-1.59c28.4,8,49.74,33.52,52.87,63.18,4.69,44.43-30,82.87-74.52,82.48-37.32-.32-68.89-29-72.91-66.29A74.13,74.13,0,0,1,71.91,25.05c1.1-.37,2.2-.72,3.32-1,2.72-.7,6-2,7.07,1.86s-2.11,4.44-5,5.27c-31.61,9.25-51,37.69-48.38,71,2.32,29.92,27.16,55.44,58.16,59.65C89.9,162.24,92.74,162.17,95.55,162.31Z"/><path class="cls-2" d="M52.73,104.94c0-8.77.1-17.54,0-26.31C52.62,74.8,54.16,73,58,73.33c7,.58,14.16-1.27,21.12,1.09,2,.69,2.76-1.22,2.87-2.57.78-9.29,6.65-17.23,6.75-26.78.06-6,5.16-8.76,11-6.64,8.35,3,12.75,12.36,10.18,21.61-.45,1.59-1.14,3.13-1.43,4.74-1,6,1.19,8.61,7.16,8.61,8.11,0,16.22.09,24.32,0,5.16-.07,9.1,1.87,11.24,6.57s1.24,9.07-2.54,12.67a4.25,4.25,0,0,0-1.58,3.92,3.33,3.33,0,0,1,0,2c-3.94,6.71-2.39,15.19-7,21.65-.86,1.22-.75,2.45-.8,3.76-.33,8.79-5.87,15-14.48,15.14-13.34.2-26.83,1.47-39.78-3.38-2.64-1-5.13-.1-7.91.56-6.89,1.63-14.12,1-21.19.36-2.93-.25-3.17-2.84-3.16-5.33C52.76,122.48,52.73,113.71,52.73,104.94Z"/><path class="cls-3" d="M91.73,25.14c.22-2.2,1.41-3.73,3.66-3.86a3.49,3.49,0,0,1,3.76,3.21,3.5,3.5,0,0,1-3.3,4.13C93.57,28.89,92.28,27.35,91.73,25.14Z"/><path class="cls-1" d="M122.05,80.64c5.79,0,11.58,0,17.37,0,2.77,0,5.27.78,5.26,3.9s-2.54,3.9-5.28,3.92c-2.48,0-5,.08-7.44.11s-4.28,1.35-4.21,3.85,2.1,3.53,4.52,3.52a17.34,17.34,0,0,1,2.47-.13c1.61.25,4-1.17,4.55,1.52s-.87,4.48-3.22,5.54c-.89.4-1.95.38-2.88.7a3.44,3.44,0,0,0-2.41,3.41,3.79,3.79,0,0,0,2,3.22c1,.67,3.55-.45,3,2.18a5.91,5.91,0,0,1-3.57,4.45c-6.41,2.74-6.42,2.8-1.46,7.8,1.09,1.09.69,2.12.15,3.12-1.5,2.76-4,3.77-7,3.78-13.7,0-27.43.83-40.73-3.87-2.43-.86-3.52-1.44-3.49-4.14.12-12.41.07-24.81,0-37.22,0-1.92,0-3.4,2.38-4.17,4.57-1.51,7-5.23,7.4-9.72.88-8.78,6.82-16.2,6.43-25.32-.11-2.56,2-1.66,3.15-.74,3.76,2.93,5.17,6.82,3.78,11.42-1.35,4.44-3.12,8.76-1.43,13.51a2.26,2.26,0,0,1-.81,2.64c-1.54,1.29-2.24,2.81-1.12,4.79s2.89,1.94,4.74,1.93C110.14,80.63,116.1,80.64,122.05,80.64Z"/><path class="cls-4" d="M72.46,104.94c0,6.62-.15,13.25.06,19.86.11,3.29-.62,4.74-4.31,4.6-9.91-.37-8.14,1.08-8.22-8.05-.11-12.08.07-24.16-.09-36.24,0-3.29.63-4.74,4.32-4.6,9.93.37,8.06-1.09,8.22,8C72.54,94,72.46,99.48,72.46,104.94Z"/></g></g></svg>