<svg xmlns="http://www.w3.org/2000/svg" viewBox="0 0 188 188"><defs><style>.cls-1{fill:#fff;}.cls-2{fill:#4398b6;}.cls-3{fill:#67a5c0;}.cls-4{fill:#80b0c8;}.cls-5{fill:#fefeff;}.cls-6{fill:#fdfefe;}.cls-7{fill:#e7edf2;}.cls-8{fill:#ecf1f4;}.cls-9{fill:#eaeff3;}.cls-10{fill:#f2f5f8;}.cls-11{fill:#4899b7;}.cls-12{fill:#589fbb;}.cls-13{fill:#489ab8;}</style></defs><title>2</title><g id="Layer_2" data-name="Layer 2"><g id="Layer_1-2" data-name="Layer 1"><path class="cls-1" d="M83.56,187.94c-26.84,0-53.67,0-80.51.06C.56,188,0,187.44,0,185c.1-26.5.06-53,.06-79.52,2.9.43,2.78,2.93,3.12,4.89,3.13,17.78,11.12,33.14,23,46.57.44.49-.15-.08.33.36,1.17,1.08,2.5,3.34,3.93,2.12,1.75-1.49-.62-2.79-1.61-3.88C16.8,142.14,8.74,126.85,5.91,109,2.05,84.5,7.16,62,21.9,42.24,41.51,15.92,68.28,3.69,100.88,6c39.93,2.8,72.67,33.13,80,72.72,9.15,49.66-25.51,97.15-75.56,103.68-22.11,2.88-42.42-1.73-61-14.07-2.28-1.51-2.29-1.49-5.46-2-.29,2.17,1.53,2.74,2.76,3.6a91.51,91.51,0,0,0,35.49,14.79C79.45,185.2,82.55,184.59,83.56,187.94Z"/><path class="cls-1" d="M.06,83.56C.06,56.72.1,29.88,0,3.05,0,.56.56,0,3.05,0Q94,.12,185,0c2.49,0,3.05.56,3.05,3.05Q187.88,94,188,185c0,2.49-.56,3.06-3.05,3.05-27.5-.1-55-.06-82.5-.06,1-3.41,4.25-2.62,6.54-3.05,13-2.46,25.19-7,36.08-14.66,23.74-16.72,37.18-39.44,39.64-68.49,2.43-28.74-7.3-53.19-27.5-73.18C141.91,13.43,123,5,101.35,3.24,72.41.83,47.87,10.49,27.62,30.71c-13.07,13-21,29.21-24.38,47.47C2.85,80.25,3.27,83.05.06,83.56Z"/><path class="cls-2" d="M.06,83.56c1.81-1,1.48-2.86,1.74-4.36C9.53,36.15,42.36,5.84,86.41,1.94,135.38-2.4,177,32.82,185,77.81a93.2,93.2,0,0,1-79,108.94c-1.22.17-2.75-.38-3.52,1.19h-6a10.15,10.15,0,0,0-7,0h-6c-1.38-1.85-3.6-1.45-5.41-1.74a89,89,0,0,1-36.95-15c-2.07-1.43-6.39-2.56-4.17-6s4.93,0,7,1.45c50.64,34.32,119.5,8.1,134.4-51.23C191,65.41,156.64,14.6,105.66,7.89,49.85.55,2.36,45,6.24,101.2c1.41,20.52,9.58,38.35,23.68,53.4.79.84,1.63,1.64,2.43,2.48,1.15,1.21,1.67,2.5.36,3.92-1.46,1.58-3,1.27-4.29-.14-3.22-3.55-6.58-7-9.45-10.85A90.2,90.2,0,0,1,1.8,109.79c-.24-1.49.07-3.41-1.74-4.36v-7a12.86,12.86,0,0,0,0-8Z"/><path class="cls-3" d="M.06,90.52a7.42,7.42,0,0,1,0,8Z"/><path class="cls-4" d="M89.53,187.94a5.72,5.72,0,0,1,7,0Z"/><path class="cls-2" d="M92.84,23.14C112,23.61,128,29.73,141.61,42c1.2,1.08,2.69,2,2.69,4a2.47,2.47,0,0,1-1.44,2.41c-2,.91-3.07-.56-4.26-1.66a64.68,64.68,0,0,0-29.8-16.1,75,75,0,0,0-8.29-1.5c-1.32-.16-3.32-1-3.89.88s-1.13,4.32.46,5.65c3,2.52,4.89,6.34,9.81,6.75,4.73.4,9.08,2.92,13.32,5.24,4,2.21,7.28,5.54,12.85,5.07,4.53-.39,7.44,4.47,6.42,9.22a8.45,8.45,0,0,0,1.19,6.52,45.07,45.07,0,0,1,6.12,18.23c.39,4,1.62,5.27,5.67,5.07,7.11-.33,7,0,6-7.1A64.72,64.72,0,0,0,148.14,58c-1.2-1.81-3.6-4-.54-5.85,2.9-1.76,4,1.26,5.24,3.05,27.82,41,4.7,98.08-44,108.81a71.06,71.06,0,0,1-86.07-63C19,59,51.82,23,92.84,23.14Z"/><path class="cls-1" d="M94.62,160.14c-34.87.08-63.91-26.22-66.62-59.53C25.17,65.73,48.79,35.3,83,29.69c1-.16,1.94-.44,2.92-.57,4.33-.56,6.79,2.23,4.33,5.61-2,2.78-3.88,6.23-8.21,7.16C57.89,47.05,40.24,68.24,39.72,92.33c-.56,26,15.43,47.71,40.08,54.31,31.14,8.34,62.27-12.5,67.25-45,.23-1.46-.71-3.85,1.63-4.11,3.24-.36,6.66-.88,9.77.37,1.29.51.57,2.43.45,3.68-2.89,28.71-25.72,52.88-54.29,57.63A56.62,56.62,0,0,1,94.62,160.14Z"/><path class="cls-1" d="M56.67,94.45c0,18.39,13,33.4,31.53,36.53,16.78,2.84,34.23-7.59,40-24.17a14.68,14.68,0,0,1,9.6-9.37c2.54-.9,4.2,0,3.67,3.52-2.4,16-10.6,28.23-24.67,35.82-17.76,9.59-35.6,8.57-51.85-3.47s-23-29-18.68-49C50.43,64.85,63,52.51,82.33,47.39c3.19-.85,7.81,2.27,8.31,5.45.66,4.25-5,7.62-9.91,5.87-8.35-3-11.83-1-13,7.87-.24,1.91-1.48,2.87-2.49,4.12A36.6,36.6,0,0,0,56.67,94.45Z"/><path class="cls-1" d="M90.65,73.74c.47,3.55.46,7.45-5.15,10-4.82,2.16-6.46,8.62-5.18,13.83,1.46,6,5.4,9.29,11.3,10.41,5,1,10.56-1.72,13.5-6.44,1.22-2,1.45-4.9,5.07-4.23,4.1.75,8.84-1.67,12.1,3.23,1.38,2.08,1.06,3.54.37,5.44-4.61,12.71-18,21-31.8,19.62C76.3,124.12,64.73,113.5,62.62,99.86A31.62,31.62,0,0,1,68.5,75.5c1.41-1.94,2.71-3.17,5.71-2.38,4.39,1.16,8.1-1,9.19-5.38.85-3.46,2.81-4.47,5.61-4,3,.47,1.22,3.21,1.59,4.91C90.87,69.89,90.65,71.26,90.65,73.74Z"/><path class="cls-5" d="M123.43,59.15c-.08,5.37,2.91,9.06,7.95,9.3a5,5,0,0,1,4.88,3.22c2.48,5.08,4.62,10.26,5,16,.08,1.26,1.5,3.24-.67,3.8-1.8.45-4.08,1-5.6-.71-2.73-3.11-5.88-5.55-7.52-9.92-4.55-12.11-13.7-19.62-26.46-22.26-3.4-.7-5.44-1.75-4.7-5.64.52-2.71,4.82-6.35,7.32-5.8a49,49,0,0,1,18.42,8.22C123.65,56.44,124.45,57.66,123.43,59.15Z"/><path class="cls-1" d="M96.34,73.56V71c0-8.58.36-8.87,8.35-5.83a29.94,29.94,0,0,1,18,17.92,6.23,6.23,0,0,1-5.62,8.51c-1.64.08-3.3-.09-4.95,0-3.12.23-5.77.1-6.86-3.76a6.66,6.66,0,0,0-3.41-4.05C96,81.84,95.53,77.57,96.34,73.56Z"/><path class="cls-6" d="M101.55,94.29a8,8,0,1,1-8.36-7.85A8,8,0,0,1,101.55,94.29Z"/><path class="cls-7" d="M96.28,43.2a2.65,2.65,0,0,1-2.44,2.65,2.53,2.53,0,0,1-3.06-2.46,2.42,2.42,0,0,1,2.39-2.62C94.92,40.58,95.91,41.54,96.28,43.2Z"/><path class="cls-8" d="M78.52,65.16A2.57,2.57,0,0,1,76,67.75a2.31,2.31,0,0,1-2.73-2.24,2.37,2.37,0,0,1,2.64-2.83A2.56,2.56,0,0,1,78.52,65.16Z"/><path class="cls-9" d="M127.45,91.78c1.57.25,2.76,1,2.78,2.74a2.47,2.47,0,0,1-2.41,2.56c-1.77.19-2.66-.94-2.68-2.65A2.51,2.51,0,0,1,127.45,91.78Z"/><path class="cls-10" d="M134.22,60.24a2.47,2.47,0,0,1-2.4,2.55,2.15,2.15,0,0,1-2.64-2.13,2.38,2.38,0,0,1,2.51-2.86A2.49,2.49,0,0,1,134.22,60.24Z"/><path class="cls-11" d="M93.15,119.47a9.52,9.52,0,0,1-7.48-3.23c-1-1-1.51-2.24-.56-3.55a2.42,2.42,0,0,1,3.86-.54c2.82,2.46,5.53,2.58,8.38.08a2.49,2.49,0,0,1,3.91.31c1.21,1.44.57,2.81-.52,4A9.42,9.42,0,0,1,93.15,119.47Z"/><path class="cls-12" d="M115.29,106.9c-.18,2.33-.37,4.6-3.08,4.45-3-.16-2.71-2.72-2.74-4.85,0-2,.35-3.9,2.69-3.93C115.21,102.53,115.08,105.06,115.29,106.9Z"/><path class="cls-13" d="M76.84,107.23c0,2,0,4.32-2.88,4.07s-2.39-2.63-2.41-4.57.13-4.3,2.89-4.08S76.75,105.31,76.84,107.23Z"/></g></g></svg>