<svg xmlns="http://www.w3.org/2000/svg" viewBox="0 0 194 194"><defs><style>.cls-1{fill:#fff;}.cls-2{fill:#4398b6;}.cls-3{fill:#4498b7;}.cls-4{fill:#fdfefe;}</style></defs><title>3</title><g id="Layer_2" data-name="Layer 2"><g id="Layer_1-2" data-name="Layer 1"><path class="cls-1" d="M95.51,193.92c-30.65,0-61.3-.06-91.95.08-3,0-3.57-.6-3.56-3.56Q.17,97,0,3.56C0,.6.6,0,3.56,0Q97,.17,190.44,0c3,0,3.57.59,3.56,3.56-.14,31-.08,62-.08,92.94-4.07-5.85-10.72-6.87-16.78-9-2.13-.76-2.84-2.65-3.25-4.67-.53-2.59-.81-5.33-2-7.68-2.66-5.42-1.13-9.49,3.33-13a16.43,16.43,0,0,0,3.27-3.72c1.8-2.67,2.52-5.42.57-8.32s-4.62-3.57-7.81-3.16c-.66.08.1-.17-.48.1-10.94,5.09-16.79-2.36-22.88-9.25a7.43,7.43,0,0,1-1.49-7,49.85,49.85,0,0,0,1.61-8.28,7,7,0,0,0-3.39-6.73c-2.57-1.58-5-1.22-7.48.3-2.71,1.69-4.77,4.1-7,6.3s-4.44,2.74-7.24,1.63c-.61-.25.18-.06-.47-.15-9.66-1.38-17.13-5-18.52-16.15C103.55,4.44,100.41,3,97.17,3s-5.14,2-6.29,4.81a3.73,3.73,0,0,0-.34.93C89.59,21.64,79.06,22.12,70,24.47c-2.21.57-3.77-.82-5.26-2.19-2.19-2-4.08-4.35-6.61-6S53,14,50.22,15.67,46.68,20,46.86,22.94a39.51,39.51,0,0,0,1.6,7.27,8.18,8.18,0,0,1-2.34,8.62A26.17,26.17,0,0,0,43,42c-4.61,6.2-10.24,8.27-17.74,5.31-3.61-1.42-7.39-.71-9.62,3s-.82,7.28,2,9.39c7.3,5.45,7,11.69,4.52,19.58-1.69,5.48-4,8.73-9.49,9.94a26.48,26.48,0,0,0-5.63,2C4.42,92.43,2.84,94.52,3,97.45A6.75,6.75,0,0,0,7,103.78a49.92,49.92,0,0,0,8.46,2.88c3.53.86,5.33,3,5.86,6.5a28,28,0,0,0,2,7.67c2.18,4.69.93,8.23-2.9,11.34A20.16,20.16,0,0,0,16.18,137c-1.52,2.4-2,4.83-.54,7.48s3.87,3.39,6.7,3.4a21.64,21.64,0,0,0,6.84-1.11c4.31-1.39,7.8-.31,10.67,3.1.21.26.48.47.7.71,9.52,10,9.55,5.64,6.52,19.9-.75,3.53,0,6.63,3.2,8.68a6.45,6.45,0,0,0,9-1.45c5.85-7.82,12.65-7.48,21-4.62,4.53,1.57,7.86,3,8.59,8.06S92.81,189.9,95.51,193.92Z"/><path class="cls-2" d="M95.51,193.92c-5.59-2.7-6.89-8.06-8.14-13.36-.8-3.4-2.63-4.61-6.07-5.87-8.83-3.23-16.1-3.55-22.32,4.92-2.16,2.94-6.17,3-9.55.83s-5.21-5.57-3.7-9.34c3.37-8.41,1-14.32-5.93-19.88-3.55-2.83-6.11-5-10.72-3.13a20.81,20.81,0,0,1-7.28,1.32c-6.87.15-10.71-6.57-7.28-12.49A5.21,5.21,0,0,1,16,135c11.23-6.69,4.86-15.86,3.45-24.31-.3-1.8-1.89-2-3.35-2.46-3.18-.93-6.35-1.88-9.46-3a8,8,0,0,1-5.3-7.73c0-3.36,1.8-7.14,5.35-7.55,10.55-1.21,14.36-7.66,15.85-17.21.5-3.24.84-5.46-1.81-7.73A43.08,43.08,0,0,1,15,58.75a7.71,7.71,0,0,1-.34-9.7c2-3,5.3-4.84,8.58-3.43,9.13,3.92,15.34.71,21.12-6.51,2.39-3,4.24-5.1,2.66-9a34.68,34.68,0,0,1-1.54-6.77A8,8,0,0,1,49,14.71a7.67,7.67,0,0,1,9.7.29A73.67,73.67,0,0,1,66,21.72c1.58,1.66,3.07,2.15,5.22,1.19a15.4,15.4,0,0,1,5.65-1.76C84.62,21,87.7,16.56,88.8,9.6c.75-4.72,3.75-8.21,8.55-8.25s7.94,3.2,8.75,8c1.18,7,4.23,11.89,12.21,11.75a2,2,0,0,1,.94.29c5.56,3.25,9.78,1.47,13.5-3.27a15.71,15.71,0,0,1,5-4,8.07,8.07,0,0,1,11.67,6.07,5.11,5.11,0,0,1,0,2.91C143.9,33.72,150.73,39.76,157.5,46c1.69,1.56,3.13,2.08,5.27,1.51,2.87-.77,5.78-1.41,8.7-2a8,8,0,0,1,8.93,3.81c2.14,3.37,1.64,6.6-.62,9.7-.1.14-.17.32-.3.39-10.91,6.39-6.15,15.5-4.21,24.12a3.51,3.51,0,0,0,2.84,3c1.93.44,3.76,1.36,5.7,1.7,4.95.87,8.37,3.46,10.11,8.21v3c-1.2,5-4.95,7.32-9.52,8.26-5.54,1.14-8.89,3.92-9.12,9.83a5.86,5.86,0,0,1-.63,2.39c-2.48,4.8-1,8.5,3,11.69a15.2,15.2,0,0,1,4,5c3.34,6.44-.31,13.11-7.51,13.69a19.12,19.12,0,0,1-7.85-.88c-4.07-1.41-7.46-.89-10,2.87a1.14,1.14,0,0,1-.35.35c-5.82,4.32-8.59,9.37-5.8,17a9.42,9.42,0,0,1-2.79,10.89c-4.14,3.36-9.24,3.66-13.33-1.07-5.36-6.2-10.72-6.41-17.91-4.07-4.35,1.41-6.8,3.17-7.84,7.54-1.25,5.28-3.25,10.18-9.73,10.94Z"/><path class="cls-1" d="M98.49,193.92c6-2,7.71-7.2,8.88-12.57.87-4,3-5.37,6.94-6.83,8.66-3.19,15.45-3.08,21.4,4.91,2.18,2.93,6.06,3.15,9.56,1.19,3.28-1.84,4.46-4.71,4.16-8.34a2.81,2.81,0,0,0-.12-1c-5.9-11.09,2.65-16.59,8.81-23.08,1.62-1.71,3.32-1.05,5.06-.72,3.24.6,6.45,1.52,9.72,1.9s6.08-1.14,7.78-4.23,1.31-6-.63-8.87c-.18-.28-.32-.64-.58-.8-10.91-6.4-6.09-15.49-4.23-24.14.54-2.51,2.42-2.81,4.32-3.39,5.46-1.68,11.38-2.6,14.36-8.49,0,30.41,0,60.81.07,91.21,0,2.76-.55,3.31-3.3,3.3C160,193.87,129.22,193.92,98.49,193.92Z"/><path class="cls-1" d="M54.08,35.57c-.9-3.86-1.73-7.74-2.72-11.59-.43-1.69-.84-3.31.85-4.47s3.38-.37,4.35,1c6.25,9,13.66,9.17,23.79,6,7.4-2.32,12.09-4.62,13-12.45a24.16,24.16,0,0,1,1-3.32c.43-1.68,1-3.36,3-3.43s2.93,1.55,3.11,3.27c1.11,10.51,7.13,14.36,17.3,16.88,8.41,2.08,13.69,1.38,18.65-5.13A18,18,0,0,1,139,20c1.08-.95,2.32-1.41,3.61-.53a3,3,0,0,1,1.2,3.49c-.84,3.37-1.48,6.79-2.45,10.12s-.4,5.61,2.58,7.68A41.43,41.43,0,0,1,154.1,50.85c2.06,2.92,4.43,3.63,7.67,2.76s6.43-1.54,9.63-2.38c1.55-.4,3-.51,4,.94,1.23,1.74.42,3.38-1,4.34-9.26,6.4-9.12,14.06-5.93,24.26,2.27,7.27,4.69,11.49,12.22,12.66,2.54.39,6.61.42,6.74,3.85.14,3.94-4.2,3.85-6.82,4.25-7.6,1.17-11.79,4.88-11.74,12.88a9.47,9.47,0,0,1-1.32,4.75c-4.12,6.72-1.68,11.56,3.76,16.16,2,1.71,6,3.67,4.12,7-2.07,3.69-5.65.35-8.56.22a12.05,12.05,0,0,1-3.86-.89c-4.19-1.67-7-.45-9.68,3.23a42.59,42.59,0,0,1-9.15,9c-3.28,2.41-3.82,5-2.76,8.53.9,3,1.41,6.13,2.23,9.16.44,1.63.28,3-1.16,3.93s-2.84.14-4-.94c-2.65-2.5-5.37-4.94-7.91-7.54a5,5,0,0,0-6.2-1.29,57.75,57.75,0,0,1-16.27,4.27,4.71,4.71,0,0,0-4.5,3.85c-1,3.5-2.12,7-3.13,10.47-.48,1.68-1.15,3.29-3.16,3.25a3,3,0,0,1-2.86-3c-1.19-10.87-7.38-15-18-17.32-7.75-1.68-12.61-1.42-17.48,4.59-1.54,1.91-3.36,5.48-6.74,3.46-3.11-1.87-.29-4.82-.29-7.28a6.39,6.39,0,0,1,.54-1.9c2.12-5.83,2-10.85-4.28-14.32A13.13,13.13,0,0,1,43.39,147c-3.64-6.58-8.78-6.67-15.1-4.63-2.71.87-6.56,3.52-8.61.17-2.33-3.81,2.76-5.22,4.33-7.84a6.92,6.92,0,0,1,1.7-1.8c3.94-3,4.81-6.35,2.61-11.16-1.83-4-2.6-8.53-3.3-12.92-.49-3.11-1.85-4.68-4.81-5.42-3.36-.84-6.66-2-10-3-1.5-.46-2.89-1.19-2.91-2.94s1.34-2.52,2.86-3c3.32-1,6.61-2.16,10-3,2.93-.73,4.48-2.2,4.83-5.37a45.34,45.34,0,0,1,3.78-14.34c1.69-3.63.93-6.18-2-8.7-2.36-2.06-4.37-4.52-6.53-6.81-1.09-1.15-1.81-2.45-.84-4a2.9,2.9,0,0,1,3.94-1.09c10.14,4.87,17.81,2,23.81-7.14,1.14-1.72,3.17-2.88,4.85-4.22C53.43,38.74,54.35,37.49,54.08,35.57Z"/><path class="cls-2" d="M97.31,29.74c35.15,0,65.42,27.35,67.74,61.31,2.57,37.63-22.8,69.2-59.36,73.87-27.42,3.49-54.15-10.43-68-35.44-12.8-23.06-10-53.4,6.76-74.24,1.42-1.76,2.9-4.44,5.51-2.25s.07,4.16-1.24,5.9c-24.41,32.69-14,77.47,22.12,94.76,39.08,18.73,85.1-8,88.61-51.09A62.3,62.3,0,0,0,98,35.23,60,60,0,0,0,61.2,46.94c-.94.67-1.84,1.4-2.8,2.06-1.35,1-2.82,1.28-4-.13-1.31-1.57-.9-3.17.68-4.28A107.38,107.38,0,0,1,65.4,37.73,64,64,0,0,1,97.31,29.74Z"/><path class="cls-3" d="M46.62,97.21C46.71,68.77,69.37,46.46,98,46.62a50.52,50.52,0,0,1,50.35,51.12c-.07,28.37-22.79,50.74-51.38,50.59A50.53,50.53,0,0,1,46.62,97.21Z"/><path class="cls-1" d="M97.58,143c-24.71.11-45.76-21-45.57-45.62A46,46,0,0,1,97.38,52C122.06,51.86,143.14,73,143,97.62S122.23,142.85,97.58,143Z"/><path class="cls-3" d="M132.29,97.86c0,5.13-.13,10.27.05,15.39a6.19,6.19,0,0,1-3.53,6.39c-9.53,5.32-19,10.81-28.37,16.36a5.16,5.16,0,0,1-5.94,0c-9.55-5.63-19.16-11.14-28.79-16.63a5.28,5.28,0,0,1-3.07-5.14q.15-16.64,0-33.26a5.3,5.3,0,0,1,2.87-5.26q14.67-8.34,29.23-16.87a4.83,4.83,0,0,1,5.51,0q14.55,8.54,29.22,16.86A5.26,5.26,0,0,1,132.33,81C132.21,86.61,132.29,92.23,132.29,97.86Z"/><path class="cls-1" d="M94.59,129.43c-8.62-5-16.31-9.44-24-13.83-1.68-1-2.11-2.3-2.1-4.11.06-7.93.11-15.86,0-23.79,0-3.16.9-3.28,3.35-1.81,6.66,4,13.4,7.84,20.16,11.66,1.73,1,2.72,2,2.69,4.2C94.53,110.66,94.59,119.57,94.59,129.43Z"/><path class="cls-1" d="M126.49,84c0,10,0,18.95,0,27.86,0,1.4-.25,2.62-1.56,3.38l-24.55,14.14c0-9.94,0-19,0-28a3.27,3.27,0,0,1,1.71-3.25C109.93,93.63,117.73,89.08,126.49,84Z"/><path class="cls-4" d="M123.32,78.8c-.71.7-.92.94-1.17,1.15-5.58,4.69-10.86,5.1-17,.38-5.18-4-11.3-6.7-17-10,5.28-6.08,8.83-6.8,15.27-3.11S116.43,74.8,123.32,78.8Z"/><path class="cls-4" d="M107.15,87.9c-8,6.83-8.66,6.88-17.26,1.89-6-3.48-12-6.92-18.09-10.43,8-6.76,8.72-6.86,16.85-2.17C94.8,80.73,100.93,84.3,107.15,87.9Z"/></g></g></svg>