<svg xmlns="http://www.w3.org/2000/svg" viewBox="0 0 178 204"><defs><style>.cls-1{fill:#fff;}.cls-2{fill:#4498b7;}.cls-3{fill:#4398b6;}.cls-4{fill:#fefeff;}.cls-5{fill:#fefefe;}.cls-6{fill:#fbfcfd;}</style></defs><title>4</title><g id="Layer_2" data-name="Layer 2"><g id="Layer_1-2" data-name="Layer 1"><path class="cls-1" d="M.08,93.55c0-30,.06-60-.08-90C0,.6.6,0,3.56,0Q89,.17,174.44,0c3,0,3.56.6,3.56,3.56q-.17,98.45,0,196.88c0,3-.6,3.57-3.56,3.56q-87.18-.17-174.36-.08V102.5c5.91-.87,5.92-5.6,6.48-10C9.92,66.41,23.09,46.46,45,32.26A78.43,78.43,0,0,1,87.77,19.68c10.76-.08,21.52-.05,32.27,0,1.78,0,4.06-.42,5,1.4s-1.12,3.18-2.15,4.59-3.2,2.78-1.18,4.56,3.27-.49,4.5-1.66c2.64-2.5,5.15-5.15,7.74-7.7,1.83-1.8,2.31-3.51.29-5.51C131,12.23,128,9,124.7,5.94c-.94-.87-2.16-2-3.4-.56-1,1.15.12,2.13.79,3,1.24,1.67,4,3.15,3,5.27-1.25,2.55-4.43,1.51-6.82,1.58-12.55.38-25.1-.34-37.67.89a84.92,84.92,0,0,0-45.84,18.4C17.47,48.36,7,66.27,3.1,88.05,2.74,90.06,3.24,92.92.08,93.55Z"/><path class="cls-2" d="M.08,93.55C2.5,90.16,2,86,2.89,82.26a87.88,87.88,0,0,1,79-67.48c12.4-1,24.81-.24,37.22-.5,1.79,0,3.59,0,6.8,0-2.48-2.51-4.06-4.29-5.83-5.85s-2-2.69-.16-4.41c1.65-1.54,2.77-2.52,4.79-.34,3.82,4.13,7.87,8.05,11.91,12,1.46,1.41,1.83,2.47.19,4.05-4.18,4-8.33,8.08-12.27,12.32-1.94,2.09-2.94.89-4.34-.46s-2.53-2.7-.35-4.35c2-1.49,3.93-3,5.8-4.42-1.89-2.4-3.32-1.79-4.51-1.76-14.71.37-29.46-1-44.14.85C41.55,26.41,12,56.42,7.9,91.91c-.15,1.31-.72,2.66-.54,3.92.86,5.92-2,7.61-7.28,6.67Z"/><path class="cls-3" d="M88.4,174.19a71.69,71.69,0,1,1,71.7-71.59A71.46,71.46,0,0,1,88.4,174.19Z"/><path class="cls-2" d="M44.56,192.47c1.74,1.22,3.52,2.38,5.21,3.66,2,1.52,2.61,2.93.43,5.17-2.39,2.46-3.57.94-5.14-.67-3.59-3.67-7.17-7.35-10.9-10.87-1.75-1.66-2.26-2.8-.2-4.7,4-3.7,7.83-7.62,11.59-11.58,1.66-1.75,2.73-2.21,4.74-.24,2.18,2.11,1.87,3.48-.27,5-1.84,1.35-3.71,2.68-5.57,4l1.13,1.7C60,184,74.5,184,89,184a78,78,0,0,0,19.61-2.58,81.54,81.54,0,0,0,61.19-74.57c.19-3.34.9-4.87,4.47-4.45,1.89.23,2.41.74,2.32,2.76-1.84,43.12-33,78.11-75.6,84.52a110.59,110.59,0,0,1-15.34,1c-13.22.13-26.45,0-39.68,0Z"/><path class="cls-4" d="M70.17,105.64c4.32.51,11.06-2.28,14.32,1.11,3,3.11.76,9.75.85,14.83.12,7.26,0,7.29-7,7.63a72,72,0,0,0-17,2.75c-3.72,1.11-4.9-.24-5.65-3.66-1.28-5.82-1.92-11.7-2.73-17.57-.5-3.59.22-5.59,4.54-5.17C61.35,105.94,65.34,105.64,70.17,105.64Z"/><path class="cls-4" d="M108,105.64c4.3,0,8.6.12,12.9,0,2.62-.1,3.54.86,3.32,3.46a144.34,144.34,0,0,1-3.11,20.56c-.57,2.45-1.84,3.23-4.27,2.56a88.44,88.44,0,0,0-21-3.12c-3-.08-4.4-1.17-4.2-4.52.31-5,.21-9.93,0-14.89-.1-3,.87-4.21,4-4.06C99.69,105.79,103.83,105.64,108,105.64Z"/><path class="cls-5" d="M68.73,99.33c-4.13,0-8.27-.08-12.4,0-2.38.06-3.76-.43-3.52-3.26a137.29,137.29,0,0,1,3.22-21c.56-2.29,1.84-2.89,4-2.28A99.54,99.54,0,0,0,81.5,76.11c2.78.17,4.11,1,3.94,4.18-.28,5.12-.19,10.26,0,15.38.09,2.85-1.06,3.79-3.79,3.7C77.33,99.23,73,99.33,68.73,99.33Z"/><path class="cls-5" d="M107.39,99.33c-3.47,0-7-.22-10.4.06-4,.33-5.74-.78-5.41-5.12a132.64,132.64,0,0,0,0-14.38c-.09-2.55.84-3.51,3.33-3.69a112.17,112.17,0,0,0,22.46-3.47c2.07-.58,3.06.35,3.54,2.27a133.15,133.15,0,0,1,3.25,21c.23,2.72-.93,3.43-3.43,3.35C116.31,99.23,111.85,99.33,107.39,99.33Z"/><path class="cls-4" d="M35,99.33c-1.32,0-2.64,0-4,0-8.14,0-8,0-6.5-8.36a68.83,68.83,0,0,1,9.84-24.66c1.42-2.24,2.61-2.85,5.08-1.4,3.39,2,8.43,2.65,10.22,5.48s-1.34,7.4-1.78,11.29c-.49,4.42-1.16,8.85-1.24,13.29-.07,3.47-1.33,4.74-4.73,4.41C39.64,99.15,37.31,99.33,35,99.33Z"/><path class="cls-4" d="M142,99.33c-10.88,0-10.73,0-12-10.78a132.57,132.57,0,0,0-3-15.54c-.52-2.21-.23-3.33,2-4.1a23.1,23.1,0,0,0,6.28-2.85c4.09-3.06,6.38-1.92,8.69,2.3a74.81,74.81,0,0,1,9.1,26.5c.45,3.48-.61,4.88-4.18,4.52C146.66,99.15,144.33,99.33,142,99.33Z"/><path class="cls-4" d="M35.31,105.64c10.62,0,10.46,0,11.64,10.61a115.65,115.65,0,0,0,2.94,15.54c.63,2.53.08,3.65-2.24,4.37a33.31,33.31,0,0,0-4.09,1.75c-7.84,3.75-7.81,3.74-12.1-4.19A69.63,69.63,0,0,1,24,110.79c-.54-3.58,0-5.79,4.43-5.2A53.37,53.37,0,0,0,35.31,105.64Z"/><path class="cls-4" d="M153.33,108.24a67.89,67.89,0,0,1-11.19,31.1c-.19.27-.36.56-.57.81-2.11,2.41-3.94.12-5-.88-2.91-2.64-9.94-.94-9.25-6.59,1-8,3.21-15.84,3.22-24,0-2.37,1.18-3.12,3.42-3.08,5.28.08,10.57.12,15.85,0C152.64,105.53,153.85,106.54,153.33,108.24Z"/><path class="cls-5" d="M85.37,54.13c0,3.47-.27,7,.06,10.4.41,4.15-1,5.66-5.18,5-6-.88-12.12-1.4-18-2.94-1.55-.4-3.54-.5-2.41-3.07,4.45-10.16,9.93-19.45,20.48-24.49,3.31-1.59,5.61-1.85,5.16,3.16C85.09,46.17,85.37,50.16,85.37,54.13Z"/><path class="cls-5" d="M91.66,53.44c0-3.8.26-7.62-.07-11.4-.39-4.6,1.64-4.55,4.88-3.08,7.72,3.5,12.88,9.59,16.91,16.79C119,65.85,119,66,107.83,68c-4.2.77-8.49,1-12.74,1.6-2.55.33-3.57-.64-3.47-3.28C91.78,62,91.66,57.73,91.66,53.44Z"/><path class="cls-5" d="M85.37,151.69c0,4.13-.1,8.26,0,12.39.09,2.94-1,3.37-3.57,2.4-8.73-3.3-14.17-10-18.49-17.8-5.27-9.57-5.22-9.59,5.49-11.65,16.54-3.19,16.54-3.19,16.54,13.17Z"/><path class="cls-5" d="M91.66,151.3c0-4.29.09-8.59,0-12.88-.07-2.42.89-3.23,3.22-3a124.37,124.37,0,0,1,20.5,3.1c1.21.3,2.86.55,2,2.53-4.6,10.64-10.2,20.4-21.58,25.28-3.49,1.5-4.33.32-4.16-3.09C91.82,159.24,91.66,155.27,91.66,151.3Z"/><path class="cls-6" d="M63.43,43.25C59.5,49.49,55.74,55.6,53.19,62.36c-.58,1.55-1.76,1.1-2.86.57-3.06-1.48-7.76-2-8.51-5-.57-2.26,3.7-4.59,6.16-6.48C52.6,47.94,57.36,44.55,63.43,43.25Z"/><path class="cls-6" d="M113.42,43.57c9.08,2.56,16.26,7.62,22.42,14.25-.39.52-.52.85-.76,1-9.65,5.58-9.58,5.54-14.81-4.11C118.2,50.88,115.72,47.28,113.42,43.57Z"/><path class="cls-6" d="M136.12,146.76a52.75,52.75,0,0,1-22.32,15.09c2.26-5,5.56-9.19,7.78-14,3.2-7,3.3-6.94,10.32-3.4C133.21,145.08,134.48,145.84,136.12,146.76Z"/><path class="cls-6" d="M41,147.06a5.52,5.52,0,0,1,.72-.76c9.8-5.85,9.72-5.8,14.92,3.82,2.09,3.88,4.61,7.52,6.59,11.72C54.62,158.93,47.45,153.88,41,147.06Z"/></g></g></svg>