<svg xmlns="http://www.w3.org/2000/svg" viewBox="0 0 202 202"><defs><style>.cls-1{fill:#fff;}.cls-2{fill:#4398b6;}.cls-3{fill:#4599b7;}.cls-4{fill:#4598b7;}.cls-5{fill:#69a6c0;}.cls-6{fill:#63a3be;}.cls-7{fill:#65a4bf;}.cls-8{fill:#61a3be;}.cls-9{fill:#66a4bf;}.cls-10{fill:#6aa6c1;}.cls-11{fill:#589fbb;}.cls-12{fill:#5aa0bc;}.cls-13{fill:#529dba;}.cls-14{fill:#579fbb;}.cls-15{fill:#509cb9;}.cls-16{fill:#569ebb;}.cls-17{fill:#5ba0bc;}.cls-18{fill:#559ebb;}.cls-19{fill:#549dba;}.cls-20{fill:#589fbc;}.cls-21{fill:#fcfdfe;}.cls-22{fill:#fafbfc;}.cls-23{fill:#4498b7;}.cls-24{fill:#fafcfd;}</style></defs><title>5</title><g id="Layer_2" data-name="Layer 2"><g id="Layer_1-2" data-name="Layer 1"><path class="cls-1" d="M96.52,201.92h-3c-2.49-.86-5-1.66-6.16-4.42a2.87,2.87,0,0,0-1.75-1.69c-6.86-1.72-12.79-6.25-20.08-6.65a20.1,20.1,0,0,0-2.91-.46c-3.11.33-2.14-5.32-6.49-3.89-3.11,1-5.52-2.34-8.13-4a20.75,20.75,0,0,0-11.79-3c-5.78.11-12.11-5.72-12.26-11.6a29.12,29.12,0,0,0-6.21-17.68c-3.25-4.27-5-9.9-6.76-15.2a4.79,4.79,0,0,1,1.35-5c1.46-1.12,4.61-.41,3.85-4-.68-3.2-2.48-4.35-5.56-3.94a4.23,4.23,0,0,1-1.16-4.55c.83-1.35,2.44-.56,3.49-1.28,1.46-1.61.73-4.25,2.66-5.63,6.73-5.42,7-10.35.82-16.29-1.09-1-2.32-2-2.39-3.59-.13-2.93-2.22-3.15-4.32-3.52-.8-1.77-.11-3.28.83-4.75.26-.24.58-.46.87-.37,2.42.7,3.93-.41,4.46-2.62.3-1.26,2.43-3.82-1.39-3.44-.93.1-1.33,2-2.84,1.2-2.73-6,1.38-10.66,3-15.91,2-6.54,7.76-11.1,8.71-18,.15-1.14.9-2.32.41-3.39-2.07-4.51,0-7.63,3.26-10.42,2.85-2.46,5.38-4.69,10-4.07s8.77-2,12.83-4.43C57,15,64.37,10.58,73.42,12.55c1.55,1.92,2.42,4.68,6.09,2.93,2.92-1.4,3-2.57.84-4.55,2-4.07,2.54-4.17,6.47-1.18A19.66,19.66,0,0,0,99,20.49c4.22,1.34,7.53-1.06,9.84-4.68,1.57-2,3.94-1.76,6-2.24a6.31,6.31,0,0,0,1-.7c.68-.8.93-1.94,2-2.44a2.66,2.66,0,0,1,2.58.34c0,2.35.1,4.36,3.06,5.22s4.42,0,5.51-2.5c2.26-2.86,4.84-2.83,7.92-1.24,2.91,1.51,5.77,3.22,9.12,3.81,2.33.41,3.61,2.24,4.58,4.22,1.35,2.72,3.2,3.59,6.4,3.19,7.4-.92,14.49-.32,19.32,6.68,1.08,1.57,2.08,3,1.71,5-1.18,6.22.44,11.11,4.78,16.14a34,34,0,0,1,6.84,14.58c.64,2.88.74,5.85,2.51,8.49,1.28,1.93.72,3.83-1.7,4.75-2.54,0-2.31-2.43-3.24-3.84-.47-.69-1-1.45-2-.94-.66.36-.55,1.14-.47,1.8.4,3.34,2.3,4.85,5.63,4.6A44.38,44.38,0,0,0,196,86.85c1.68,1.55,2.59,3.36,1.37,5.65-5.5,1.75-6.81-2.78-9.2-7.11-.86,4.63-3.49,7-5.92,9.61a8.39,8.39,0,0,0,.25,11.31c2.07,2,5,6.47,5.77,6,2.78-1.76,5.9-3.41,8.18-6,1-1.08,1.49-2.61,3-3.14,1.12-.1,1.76.67,2.47,1.32v3c-1.08,1.84-2,4.11-4.26,4.54-3.64.69-3.53,3-3.47,5.88.07,3.75.17,7.76-4.78,8.93-2.92-1.72,0-5.06-1.78-7.22-3.53,4.21-3.46,4.81.84,8,.32,2.49.26,4.9-1.67,6.84a2.27,2.27,0,0,1-.9-.29c-1.2-.58-.79-3.57-2.89-2.38a3.65,3.65,0,0,0-1.51,4.64c2.27.76,2.54-3.39,5-1.87,3.79,1.41,2.83,4.13,1.22,6.23a22.91,22.91,0,0,0-4.09,7,4.34,4.34,0,0,1-5.76,3.07c-1.83-1.15-.9-2.56-.31-3.89s1.93-2.7,1.52-4.62c-3.87,2.58-4.06,3.42-1.94,8,2,2.1,2.13,4.54,1.68,7.27-.5,3-1.32,6-1.33,9.13s-1.94,4.72-5.27,3.76c.08-5.87-1.5-11.78.6-18.39-3.1,2.44-6.07,2.7-9.39,2.48-5.5-.35-9.28,3.74-9.15,9.39.06,2.59.5,5.17-.63,7.56a112.11,112.11,0,0,0,16.71.43c.94,5.07-1,7.08-5.65,5.42-5.62-2-10.19-.15-13.63,3.89-3.6,4.23-9.1,4.25-13.26,7.11-1.29.88-2.73-.53-3.36-2.06-.94-2.91,2.93-2.67,3.22-5.17-2.09-1.1-3.78.05-4.88,1.5-1.3,1.72,1.13,2.36,1.62,3.63-1.29,3-3.14,4.36-6.24,2.2-1-1.62-.52-4.44-4-3.68-3.27.72-4.06,2.71-3.93,5.59-1.44,1-2.93,1.62-4.69.89-.48-2-.75-4.11-3.61-4.35-2.15-.18-3.19-2.13-4.56-3.54-4-4.16-10-4.54-13.4-.11-1.71,2.19-6.84,3.13-5,6a27.34,27.34,0,0,0,5.34,6.82c1.24,1,2.94,1.6,3.54,3.32C97.94,200.58,97.17,201.22,96.52,201.92Z"/><path class="cls-1" d="M196.87,92.79c.33-2.44-.4-4.1-2.51-5.8-1.94-1.56-4.88-3-4.42-6.48a1.3,1.3,0,0,1-.12-1.84c1.53-.68,3-2.29,1.72-3.38-3.66-3.18-1.49-8.14-3.71-11.24-3.23-4.52-2.75-11.1-8.39-14.21-2.24-1.23-4.22-10.91-3.05-13.25,1-2,1.06-3.77-.72-5.34-2.2-1.95-4.39-3.93-6.62-5.84-.61-.53-1.72-1.42-2-1.23-3.85,2.59-8.14-1.18-11.88.83-2.13,1.15-3.27.11-3.85-1.48-2.27-6.25-8.4-6.59-13.18-9.15-3.24-1.74-6-3.33-9.14-.27-3.06-.3-6.13-.57-8.43-3l-3.49,0a10,10,0,0,1-6.71-.71,9,9,0,0,1-1.53-2.52C105,1,97.35.63,92.78,7.08c-1.46,2.07-2.36,5.18-6,3.05-2.26-1.19-4.57-2.82-6.21.8-1.76,2.13-3.9,3.11-6.66,2.2-6.15-.18-11.81,1.4-17.53,3.71-4.83,2-8.08,6.57-13.62,7.21-2.75.32-5.08,2.81-8.27.5-1.85-1.34-3.24,1.29-4.35,2.37-3,2.95-8.44,4.54-5,11.32,1,2,.12,8.29-3.38,11-4.51,3.52-4.1,9.32-7.13,13.55A17,17,0,0,0,12,75.71c1.33,1.87,1.27,3.48-.89,4.69l-1.05,5.34c1.84,2.64.86,4.45-1.54,6.12C.37,97.52.38,103,8.56,109.06c2.28,1.7,3.39,3.52,1.53,6.17-.42,1.92.82,3.53,1,5.33A7,7,0,0,1,13.15,128c-3.25,4.7.48,8.37,2,12.24,2.83,7.28,8.79,13.07,10.24,21.06.12.64.63,1.39.43,1.87-2.33,5.75,2,8.46,5,12.13s6.47.35,9.73,1.52c3.66,1.31,7.44,1.72,10.53,4.64,1.86,1.76,4.32,4,7.45,1.84.79-.54,1.07-.29,1.23.56.78,4.26,4.07,4.26,7.27,4.08,2.73-.16,4.93,1.11,7.26,2.14,2.11.93,4.15,2.16,6.35,2.68,3.89.93,7.71,1.45,9.19,6.18.39,1.26,2.45,2,3.75,3H.07Q.07,102.37,0,2.81C0,.45.47,0,2.8,0Q100.92.13,199,0c2.69,0,2.94.87,2.94,3.14q-.1,50.67-.05,101.34a2.08,2.08,0,0,1-2-1.1A34.28,34.28,0,0,1,196.87,92.79Z"/><path class="cls-1" d="M128.06,187.89c2.88,1.85,4.47-.24,6.17-2v0c1.92,1.6,3.71,2.62,5.8,0a5,5,0,0,1,3.44-1.72c3.45,0,5.23-2,7-4.55,2.27-3.19,10.48-5.37,13.58-4,5,2.18,5.76,1.67,5.9-3.89a1.65,1.65,0,0,1,1.77-1.79c3.19-.15,6.48-.21,3.92-4.94-1-1.75,1.39-2.32,1.39-3.87,0-3.72,1.73-7.45-.11-11.15v0c3.78.53,6.13-.78,6.05-4.93a3.7,3.7,0,0,1,2.14-3.49c3.33-2.08,3.93-4.6.77-7.42h0c1.9-2,1.16-4.76,2.08-7a.88.88,0,0,1,.82-.93c5.77-1.91,4.23-6.82,4-10.8-.13-2.69-.59-4.43,3-4.11,2.87.26,3.8-3,6.08-3.91,0,30.42,0,60.84.08,91.25,0,2.78-.59,3.3-3.32,3.29-34.05-.12-68.11-.08-102.16-.08a2.08,2.08,0,0,1,1.08-2c4.92-1.79,9.87-3.31,12.52-8.64.93-1.85,3.35-1.83,5.2-.31l5.12-1A6.93,6.93,0,0,1,128.06,187.89Z"/><path class="cls-2" d="M100.5,168.29c-37.92,0-67.73-29.83-67.74-67.77a67.26,67.26,0,0,1,67.8-67.75c37.92,0,67.35,29.88,67.82,67.81C168.84,137.37,136.92,169.34,100.5,168.29Z"/><path class="cls-3" d="M115.32,191c-2.65-.27-4.52.27-5.77,3.17-2.22,5.12-6.84,6.16-12,5.78-3-1.72-6.08-3.48-7-7.18-.66-2.68-5.39-.82-4.9-4.47.42-3.12,3.89-1.42,5.47-3.34,7-8.55,11.19-8.47,18.62,0,1,1.2,2.17,1.19,3.51,1.21C117.53,186.22,117.88,188,115.32,191Z"/><path class="cls-3" d="M10.09,115.23c.36-2.73-.36-4.53-3.27-5.7C3,108,1.08,104.63,1.11,100.47c0-4.34,2-7.81,6.09-9.32,2.94-1.08,3.07-3,2.88-5.41,2.68-2.61,4.81-2.91,4.79,1.63,0,2.38,1,3.38,2.75,4.64,6.88,4.81,6,13.7-1.57,17.47-3.08,1.51-.53,4.76-2.1,6.74A3.28,3.28,0,0,1,10.09,115.23Z"/><path class="cls-3" d="M196.87,92.79a14.06,14.06,0,0,1,3,10.59c-1.7,3.06-3.54,6-7.2,7a2.16,2.16,0,0,0-1.66,2.17c-.1,2.1-1.92,2.35-3.18,2.41-1.75.07-1.56-1.71-1.64-2.94-.11-1.62-1.41-2-2.48-2.76-6.62-4.65-6.84-12.89-.23-17.26,2.16-1.43,2.9-2.8,2.62-5.17a2.2,2.2,0,0,1,2.22-2.68,2.13,2.13,0,0,1,2.33,2.11C190.44,90.76,194.21,91.21,196.87,92.79Z"/><path class="cls-4" d="M48,163.76c-.54,2.51-1.33,5.54,2.13,7.63.83.5.63,1.8-.26,2.59a2.26,2.26,0,0,1-3.17,0c-2.15-2-4.26-1.47-6.78-.77-7.78,2.17-14.51-4.9-12.29-12.74.54-1.88,1.5-3.61-.15-5.5a2,2,0,0,1,.52-3.06,1.8,1.8,0,0,1,2.67.1c1.69,2.44,3.85,1.06,5.84,1A10.69,10.69,0,0,1,48,163.76Z"/><path class="cls-3" d="M171.76,170,170,171.78c-3.63,1.87-7.39,3.1-11.28.92-2.45-1.37-4.38,3.19-6.7.41-2.08-2.5,1.88-3.46,1.51-6.07-1.47-10.39,2.82-14.57,13.31-13.42,2,.21,2.63-.71,3.56-1.86s2-1.91,3.37-.95a2.16,2.16,0,0,1,.29,3.46c-1.93,2.15-1.84,4.28-.79,6.76C174.62,164.27,173,167.12,171.76,170Z"/><path class="cls-3" d="M37.51,48c-2.41.17-4.74-1.57-7.31,1-1.38,1.37-3.66-.93-2.54-2.88,1.29-2.26.64-4,.09-6A9.89,9.89,0,0,1,39.44,27.6c2.75.6,5.28,1.49,7.74-.77a2,2,0,0,1,3.06.34,2,2,0,0,1-.45,3.06c-2.73,1.72-1.9,4.16-1.77,6.6A10.55,10.55,0,0,1,37.51,48Z"/><path class="cls-3" d="M86.82,10.13c2.31.29,3.46-.79,4.4-2.92,1.93-4.37,5.57-6.6,10.33-6s8.15,3.33,9,8.43c.74,1.67,2.23.7,3.37.92,1.95.38,3.38,1,2.45,3.43v0c-2,1.6-5.38-1.12-6.85,2.17C105.77,23.44,97,24.42,92.27,18c-1.2-1.64-2.06-3-4.41-3.35C84.84,14.16,85.6,12,86.82,10.13Z"/><path class="cls-3" d="M153,36.94c-.09-2.15,1.17-4.16-.79-6.47a1.92,1.92,0,0,1,2.4-2.95c2.64,1.59,4.67.55,7,.11A10,10,0,0,1,173.34,40.3c-.59,2.09-1.43,4,.27,6,.69.81.3,1.9-.5,2.66s-2.12,1-2.67.14c-1.67-2.5-3.82-1.17-5.82-1A10.63,10.63,0,0,1,153,36.94Z"/><path class="cls-5" d="M74,13.13l6.66-2.2c1.75.09,3.46.48,3.44,2.61s-1.85,2.27-3.46,2.77C74,18.35,73.76,18.27,74,13.13Z"/><path class="cls-6" d="M120.57,11.1c2.87.84,5.93,1.14,8.44,3,.33,1.77.16,3.63-1.95,3.73A10.41,10.41,0,0,1,119,15C117.39,13.27,119.4,12.15,120.57,11.1Z"/><path class="cls-6" d="M11.13,80.4c.3-1.56.6-3.13.89-4.69a27.64,27.64,0,0,1,1.75-2.93,2.11,2.11,0,0,1,3.05-.52c1.38.87,1.39,2.24,1,3.5-.7,2.32-1,5-3.22,6.42C12.82,83.32,12.11,81.38,11.13,80.4Z"/><path class="cls-7" d="M189.82,78.67l.12,1.84c-1,1-1.77,2.84-3.49,1.76-2.42-1.51-2.42-4.45-3.26-6.85a2.24,2.24,0,0,1,1.06-2.93c1.69-.91,2.89-.16,3.62,1.27A52.23,52.23,0,0,1,189.82,78.67Z"/><path class="cls-8" d="M13.15,128c-.69-2.48-1.38-4.95-2.06-7.43,1-1.19,2.19-3.25,3.82-1.57,2.17,2.23,3.53,5.36,2.71,8.45C17,129.76,14.81,128.92,13.15,128Z"/><path class="cls-9" d="M128.06,187.89,120.44,190c-1.17-1.07-3.14-2.3-1.46-3.88,2.25-2.11,5.37-3.47,8.44-2.68C129.71,184,128.92,186.21,128.06,187.89Z"/><path class="cls-10" d="M83.73,187.12c-.16,2.17-1.4,3.19-3,2.72-2.6-.77-6.38.24-7.14-3.81-.26-1.4.77-3,2.22-2.54C78.6,184.38,82.16,184,83.73,187.12Z"/><path class="cls-10" d="M188.77,126.28l-.82.93c-2,.34-4.65.74-4.37-2s.34-6.27,3.27-7.67c2.13-1,3.26.87,3,3C189.66,122.48,189.15,124.37,188.77,126.28Z"/><path class="cls-11" d="M140.23,20c-.45,2.05-1.77,2.6-3.06,2-2.5-1.15-6.31-.82-6.67-4.73a2,2,0,0,1,2.81-1.88C136,16.33,138.94,17.19,140.23,20Z"/><path class="cls-12" d="M185.88,67.79c-.17,1.94-1,3.24-2.5,2.8-3.4-1-3.49-4.42-4.33-7.1-.44-1.39.77-3,2.2-2.45C184.43,62.18,184.6,65.61,185.88,67.79Z"/><path class="cls-13" d="M17.78,70.67c-1.79-.34-2.85-1.19-2.32-2.77.93-2.75,1.47-6,4.75-7a1.84,1.84,0,0,1,2,2.63C21,66.13,20.94,69.52,17.78,70.67Z"/><path class="cls-14" d="M185.91,134.23c-1.78,1.35-1.74,5.68-5,4.19-3.51-1.6-.25-4.21.17-6.35.33-1.72,1.29-3.3,3.35-2.78,3,.75,1.27,3.19,1.46,5Z"/><path class="cls-15" d="M177,150c-2.6-.21-3.77-1.78-2.67-4s1.44-5.54,4.65-5.81c2.37-.19,2.59,1.76,1.74,3.47-1.09,2.21-2.47,4.27-3.73,6.39Z"/><path class="cls-16" d="M22.69,141.2c2.74.39,2.92,3,4.19,4.59,1,1.22,1.51,2.63.67,4.14a1.77,1.77,0,0,1-1.16.86c-3.1.17-3.29-2.83-4.63-4.51-1-1.29-1.68-2.95-.32-4.52C21.72,141.43,22.3,141.37,22.69,141.2Z"/><path class="cls-16" d="M180.27,57.44c0,1.32-.53,2.24-2,2.3s-5.29-5.15-5.19-7.23c.06-1.29.56-2.27,2-2.36S180.34,55.31,180.27,57.44Z"/><path class="cls-16" d="M60.87,179.37A1.89,1.89,0,0,1,58,180.92c-2.62-1.18-5.94-1.87-6.67-5.17-.33-1.46,1.5-1.91,2.93-1.77C56.85,174.23,61.05,177.55,60.87,179.37Z"/><path class="cls-11" d="M71.83,183.66c-.13,2-1.15,2.8-2.63,2.42-2.78-.72-6.11-1-6.9-4.51a1.93,1.93,0,0,1,2.6-2.07C67.37,180.66,70.9,180.38,71.83,183.66Z"/><path class="cls-17" d="M134.23,185.88c-1.62,0-3.46.26-3.85-2s1.4-2.68,2.87-3.35a32.29,32.29,0,0,1,3.15-1.33c1.33-.46,2.66-.42,3.38,1s-.3,2.41-1.44,3.14c-1.35.88-2.74,1.7-4.12,2.54Z"/><path class="cls-16" d="M143.64,20.77c2.13,0,7.37,3.68,7.26,5.21s-1.07,1.94-2.36,2c-2.19.11-7.27-3.59-7.22-5.25S142.36,20.82,143.64,20.77Z"/><path class="cls-16" d="M23,59.7c-1.41,0-2.43-.85-2.1-2.13.77-3,1.79-6.13,5-7.41,1.21-.48,2,.83,2.12,2.14C28.19,54.31,24.56,59.65,23,59.7Z"/><path class="cls-18" d="M22,137c0,1.8-.65,3.4-2.08,2.92-3.13-1-3.78-4.21-4.58-7a1.87,1.87,0,0,1,2.13-2.52C21.14,131.14,20.59,134.93,22,137Z"/><path class="cls-19" d="M150.9,175.24c-.61,2.49-3.05,2.86-4.69,4.12a3.55,3.55,0,0,1-4.14.54,2.2,2.2,0,0,1-.75-1.66c0-2,6.39-5.77,8.27-4.91A2.22,2.22,0,0,1,150.9,175.24Z"/><path class="cls-13" d="M61.34,21.86c-.32,2.31-2.25,2.8-3.75,3.66s-3,2.19-5,1.19a1.65,1.65,0,0,1-.85-1.12c0-2.71,2.33-3.32,4.09-4.31,1.46-.82,3-2.33,4.85-.58A4,4,0,0,1,61.34,21.86Z"/><path class="cls-20" d="M71.71,16.93c-.4,1.38-1.07,2.69-2.7,3.08-1.84.43-3.38,2.42-5.51,1.19a1.86,1.86,0,0,1-.76-2.59c1.78-2.72,4.63-3.52,7.68-3.59C71.38,15,71.67,15.93,71.71,16.93Z"/><path class="cls-6" d="M116.38,14c.16-4.26-4.82-1.64-5.82-4.35,2.14.63,4.57.05,6.52,1.51C117.2,12.15,117.64,13.27,116.38,14Z"/><path class="cls-6" d="M109.52,16.15c1.24-4,4.57-1.44,6.85-2.17C114.61,16.35,111.27,13.74,109.52,16.15Z"/><path class="cls-8" d="M14,116.22c.71-2.24-1.71-5.46,2.1-6.74C13.77,111.24,16.37,114.51,14,116.22Z"/><path class="cls-21" d="M152.1,100.65a52,52,0,0,1-51.67,51.47c-28.13,0-51.57-23.54-51.5-51.65s23.59-51.55,51.72-51.53S152.17,72.51,152.1,100.65Z"/><path class="cls-2" d="M148.05,100.67a47.49,47.49,0,0,1-47.51,47.41c-26.29,0-48-21.85-47.54-47.9C53.48,73.77,74.87,52.64,100.77,53A47.57,47.57,0,0,1,148.05,100.67Z"/><path class="cls-22" d="M101.58,126c-4.64,0-9.29.14-13.92,0-6.79-.27-9.69-3.22-9.78-9.87-.1-7-.06-13.92,0-20.88,0-3.09.54-6.47,3.7-7.56,4.25-1.46,4.07-4.44,4.09-7.84.06-8.43,4.4-14.91,11.19-17a16.51,16.51,0,0,1,21.37,15.11c.2,4.08-1.19,8.62,4.81,10.34,2.19.63,2.6,3.62,2.59,6.06,0,7.78,0,15.57,0,23.36,0,4.7-2.45,7.65-7.15,7.9-5.61.3-11.25.07-16.87.07Z"/><path class="cls-23" d="M101.88,90.33c5,0,10,.09,14.91,0,3.34-.09,5,1.47,5.09,4.66.1,7.28.12,14.57,0,21.86-.05,3.68-2.27,5.26-5.82,5.25-9.45,0-18.89,0-28.34,0-3.6,0-5.5-1.62-5.44-5.46q.17-10.68,0-21.37c0-3.66,1.65-5,5.17-4.94C92.27,90.42,97.08,90.32,101.88,90.33Z"/><path class="cls-3" d="M101.54,86.34h-4c-8.42,0-8.93-.58-7.84-9,.88-6.74,5.94-11.48,12.23-11.46,6,0,11,4.63,12,11.12.2,1.3.12,2.64.26,4,.41,3.89-.83,6-5.21,5.47A63.64,63.64,0,0,0,101.54,86.34Z"/><path class="cls-24" d="M96.06,104.77c.28-2.47,1.21-4.55,3.8-5.24s5-.49,6.69,1.87,1.73,4.85-.08,6.88c-1.67,1.85-3.45,3.34-3.3,6.18,0,1-1.93,1.79-1.93.89,0-4.22-4.43-5.9-5.08-9.6C96.1,105.43,96.09,105.1,96.06,104.77Z"/></g></g></svg>