<?xml version="1.0" encoding="UTF-8"?>
<svg width="357px" height="354px" viewBox="0 0 357 354" version="1.1" xmlns="http://www.w3.org/2000/svg" xmlns:xlink="http://www.w3.org/1999/xlink">
    <title>Group 5</title>
    <g id="Page-1" stroke="none" stroke-width="1" fill="none" fill-rule="evenodd">
        <g id="our_value" transform="translate(-219.000000, -225.000000)">
            <g id="Group-4" transform="translate(219.000000, 136.000000)">
                <g id="Group" transform="translate(0.000000, 89.000000)">
                    <g id="Group-5">
                        <circle id="Oval" fill="#4298B6" opacity="0.718119543" cx="278" cy="79" r="79"></circle>
                        <circle id="Oval-Copy-2" fill="#4298B6" opacity="0.718119543" cx="278" cy="275" r="79"></circle>
                        <circle id="Oval-Copy" fill="#4298B6" opacity="0.718119543" cx="89" cy="79" r="79"></circle>
                        <circle id="Oval-Copy-9" fill="#4298B6" opacity="0.718119543" cx="79" cy="275" r="79"></circle>
                        <path d="M61.0375,85 L61.0375,74.7203125 L59.3570312,74.7203125 L59.3570312,85 L61.0375,85 Z M65.228125,85 L65.228125,81.1257813 C65.228125,80.1554687 65.3898437,79.4640625 65.7132812,79.0515625 C66.0367187,78.6390625 66.5476563,78.4328125 67.2460938,78.4328125 C67.7710937,78.4328125 68.1542969,78.5804687 68.3957031,78.8757813 C68.6371094,79.1710937 68.7578125,79.61875 68.7578125,80.21875 L68.7578125,80.21875 L68.7578125,85 L70.4171875,85 L70.4171875,79.9304688 C70.4171875,78.0320313 69.484375,77.0828125 67.61875,77.0828125 C67.09375,77.0828125 66.615625,77.1835938 66.184375,77.3851562 C65.753125,77.5867188 65.4203125,77.8726563 65.1859375,78.2429688 L65.1859375,78.2429688 L65.1015625,78.2429688 L64.8695312,77.2234375 L63.5757812,77.2234375 L63.5757812,85 L65.228125,85 Z M74.36875,85 L74.36875,81.1257813 C74.36875,80.1554687 74.5304687,79.4640625 74.8539062,79.0515625 C75.1773437,78.6390625 75.6882813,78.4328125 76.3867188,78.4328125 C76.9117187,78.4328125 77.2949219,78.5804687 77.5363281,78.8757813 C77.7777344,79.1710937 77.8984375,79.61875 77.8984375,80.21875 L77.8984375,80.21875 L77.8984375,85 L79.5578125,85 L79.5578125,79.9304688 C79.5578125,78.0320313 78.625,77.0828125 76.759375,77.0828125 C76.234375,77.0828125 75.75625,77.1835938 75.325,77.3851562 C74.89375,77.5867188 74.5609375,77.8726563 74.3265625,78.2429688 L74.3265625,78.2429688 L74.2421875,78.2429688 L74.0101562,77.2234375 L72.7164063,77.2234375 L72.7164063,85 L74.36875,85 Z M85.05625,85.140625 C86.21875,85.140625 87.1257813,84.784375 87.7773438,84.071875 C88.4289062,83.359375 88.7546875,82.3679688 88.7546875,81.0976562 C88.7546875,79.8695313 88.4265625,78.8933594 87.7703125,78.1691406 C87.1140625,77.4449219 86.2234375,77.0828125 85.0984375,77.0828125 C83.921875,77.0828125 83.0101563,77.4367187 82.3632812,78.1445312 C81.7164062,78.8523438 81.3929687,79.8367188 81.3929687,81.0976562 C81.3929687,81.9085938 81.5429688,82.6210938 81.8429687,83.2351563 C82.1429687,83.8492188 82.571875,84.3203125 83.1296875,84.6484375 C83.6875,84.9765625 84.3296875,85.140625 85.05625,85.140625 Z M85.084375,83.790625 C83.7578125,83.790625 83.0945313,82.8929688 83.0945313,81.0976562 C83.0945313,80.2398437 83.2503906,79.58125 83.5621094,79.121875 C83.8738281,78.6625 84.3765625,78.4328125 85.0703125,78.4328125 C86.3921875,78.4328125 87.053125,79.3210938 87.053125,81.0976562 C87.053125,82.8929688 86.396875,83.790625 85.084375,83.790625 Z M94.2109375,85 L97.178125,77.2234375 L95.4203125,77.2234375 L93.8382812,81.7445312 C93.5523438,82.6351562 93.3882813,83.2492187 93.3460937,83.5867188 L93.3460937,83.5867188 L93.2898438,83.5867188 C93.2335937,83.1179688 93.0695312,82.5039062 92.7976563,81.7445312 L92.7976563,81.7445312 L91.215625,77.2234375 L89.471875,77.2234375 L92.425,85 L94.2109375,85 Z M100.24375,85.140625 C100.839063,85.140625 101.326562,85.0550781 101.70625,84.8839844 C102.085938,84.7128906 102.463281,84.390625 102.838281,83.9171875 L102.838281,83.9171875 L102.894531,83.9171875 L103.225,85 L104.40625,85 L104.40625,79.7617188 C104.40625,78.8382813 104.154297,78.1609375 103.650391,77.7296875 C103.146484,77.2984375 102.4,77.0828125 101.410938,77.0828125 C100.965625,77.0828125 100.492188,77.1402344 99.990625,77.2550781 C99.4890625,77.3699219 99.0273438,77.5375 98.6054688,77.7578125 L98.6054688,77.7578125 L99.1398438,78.9390625 C99.4773438,78.7796875 99.8289063,78.6414063 100.194531,78.5242188 C100.560156,78.4070313 100.942188,78.3484375 101.340625,78.3484375 C101.828125,78.3484375 102.187891,78.4714844 102.419922,78.7175781 C102.651953,78.9636719 102.767969,79.3351562 102.767969,79.8320312 L102.767969,79.8320312 L102.767969,80.246875 L101.425,80.2890625 C100.20625,80.3265625 99.2992188,80.5492188 98.7039063,80.9570312 C98.1085937,81.3648437 97.8109375,81.9695313 97.8109375,82.7710938 C97.8109375,83.5257813 98.0253906,84.109375 98.4542969,84.521875 C98.8832031,84.934375 99.4796875,85.140625 100.24375,85.140625 Z M100.764062,83.875 C100.351562,83.875 100.042188,83.7800781 99.8359375,83.5902344 C99.6296875,83.4003906 99.5265625,83.1320312 99.5265625,82.7851562 C99.5265625,82.3070313 99.7035156,81.9519531 100.057422,81.7199219 C100.411328,81.4878906 100.977344,81.3578125 101.755469,81.3296875 L101.755469,81.3296875 L102.753906,81.2875 L102.753906,81.9625 C102.753906,82.5671875 102.572266,83.0371094 102.208984,83.3722656 C101.845703,83.7074219 101.364062,83.875 100.764062,83.875 Z M109.215625,85.140625 C109.525,85.140625 109.823828,85.1136719 110.112109,85.0597656 C110.400391,85.0058594 110.635938,84.9390625 110.81875,84.859375 L110.81875,84.859375 L110.81875,83.6148438 C110.415625,83.7414062 110.0125,83.8046875 109.609375,83.8046875 C109.285937,83.8046875 109.024609,83.7097656 108.825391,83.5199219 C108.626172,83.3300781 108.526562,83.0359375 108.526562,82.6375 L108.526562,82.6375 L108.526562,78.475 L110.741406,78.475 L110.741406,77.2234375 L108.526562,77.2234375 L108.526562,75.49375 L107.507031,75.49375 L106.944531,77.1390625 L105.805469,77.74375 L105.805469,78.475 L106.867188,78.475 L106.867188,82.665625 C106.867188,84.315625 107.65,85.140625 109.215625,85.140625 Z M115.76875,85.140625 C116.298438,85.140625 116.769531,85.1007812 117.182031,85.0210938 C117.594531,84.9414062 118.002344,84.8054688 118.405469,84.6132812 L118.405469,84.6132812 L118.405469,83.2703125 C117.950781,83.471875 117.525391,83.6160156 117.129297,83.7027344 C116.733203,83.7894531 116.305469,83.8328125 115.846094,83.8328125 C115.147656,83.8328125 114.60625,83.6300781 114.221875,83.2246094 C113.8375,82.8191406 113.633594,82.2390625 113.610156,81.484375 L113.610156,81.484375 L118.792187,81.484375 L118.792187,80.5914063 C118.792187,79.4992187 118.494531,78.6414063 117.899219,78.0179687 C117.303906,77.3945312 116.492969,77.0828125 115.466406,77.0828125 C114.360156,77.0828125 113.490625,77.4460938 112.857812,78.1726563 C112.225,78.8992188 111.908594,79.8976562 111.908594,81.1679688 C111.908594,82.4054687 112.249609,83.3769531 112.931641,84.0824219 C113.613672,84.7878906 114.559375,85.140625 115.76875,85.140625 Z M117.167969,80.2890625 L113.638281,80.2890625 C113.699219,79.6515625 113.887891,79.1664063 114.204297,78.8335938 C114.520703,78.5007813 114.941406,78.334375 115.466406,78.334375 C115.991406,78.334375 116.403906,78.4996094 116.703906,78.8300781 C117.003906,79.1605469 117.158594,79.646875 117.167969,80.2890625 L117.167969,80.2890625 Z" id="Innovate" fill="#252525" fill-rule="nonzero"></path>
                        <path d="M45.771875,281 L46.7773438,278.145312 L50.7078125,278.145312 L51.734375,281 L53.5203125,281 L49.6742188,270.678125 L47.8460938,270.678125 L44,281 L45.771875,281 Z M50.2648437,276.696875 L47.2695312,276.696875 L48.1976563,274.017969 C48.4414062,273.333594 48.6265625,272.703125 48.753125,272.126562 C48.8,272.314062 48.8855469,272.609375 49.0097656,273.0125 C49.1339844,273.415625 49.23125,273.710938 49.3015625,273.898438 L49.3015625,273.898438 L50.2648437,276.696875 Z M57.4367187,281.140625 C57.9804688,281.140625 58.4644531,281.0375 58.8886719,280.83125 C59.3128906,280.625 59.6398438,280.341406 59.8695313,279.980469 L59.8695313,279.980469 L59.9539063,279.980469 L60.1859375,281 L61.4867188,281 L61.4867188,273.223437 L59.8273437,273.223437 L59.8273437,277.097656 C59.8273437,278.072656 59.6644531,278.767578 59.3386719,279.182422 C59.0128906,279.597266 58.503125,279.804688 57.809375,279.804688 C57.2890625,279.804688 56.9070313,279.655859 56.6632812,279.358203 C56.4195312,279.060547 56.2976563,278.614062 56.2976563,278.01875 L56.2976563,278.01875 L56.2976563,273.223437 L54.63125,273.223437 L54.63125,278.307031 C54.63125,279.258594 54.8632812,279.96875 55.3273437,280.4375 C55.7914063,280.90625 56.4945313,281.140625 57.4367187,281.140625 Z M66.3453125,281.140625 C66.6546875,281.140625 66.9535156,281.113672 67.2417969,281.059766 C67.5300781,281.005859 67.765625,280.939063 67.9484375,280.859375 L67.9484375,280.859375 L67.9484375,279.614844 C67.5453125,279.741406 67.1421875,279.804688 66.7390625,279.804688 C66.415625,279.804688 66.1542969,279.709766 65.9550781,279.519922 C65.7558594,279.330078 65.65625,279.035937 65.65625,278.6375 L65.65625,278.6375 L65.65625,274.475 L67.8710938,274.475 L67.8710938,273.223437 L65.65625,273.223437 L65.65625,271.49375 L64.6367188,271.49375 L64.0742188,273.139063 L62.9351563,273.74375 L62.9351563,274.475 L63.996875,274.475 L63.996875,278.665625 C63.996875,280.315625 64.7796875,281.140625 66.3453125,281.140625 Z M72.7015625,281.140625 C73.8640625,281.140625 74.7710938,280.784375 75.4226563,280.071875 C76.0742188,279.359375 76.4,278.367969 76.4,277.097656 C76.4,275.869531 76.071875,274.893359 75.415625,274.169141 C74.759375,273.444922 73.86875,273.082812 72.74375,273.082812 C71.5671875,273.082812 70.6554687,273.436719 70.0085938,274.144531 C69.3617188,274.852344 69.0382813,275.836719 69.0382813,277.097656 C69.0382813,277.908594 69.1882813,278.621094 69.4882812,279.235156 C69.7882812,279.849219 70.2171875,280.320312 70.775,280.648438 C71.3328125,280.976562 71.975,281.140625 72.7015625,281.140625 Z M72.7296875,279.790625 C71.403125,279.790625 70.7398438,278.892969 70.7398438,277.097656 C70.7398438,276.239844 70.8957031,275.58125 71.2074219,275.121875 C71.5191406,274.6625 72.021875,274.432813 72.715625,274.432813 C74.0375,274.432813 74.6984375,275.321094 74.6984375,277.097656 C74.6984375,278.892969 74.0421875,279.790625 72.7296875,279.790625 Z M79.9507813,281 L79.9507813,277.125781 C79.9507813,276.160156 80.0996094,275.469922 80.3972656,275.055078 C80.6949219,274.640234 81.1625,274.432813 81.8,274.432813 C82.278125,274.432813 82.6296875,274.579297 82.8546875,274.872266 C83.0796875,275.165234 83.1921875,275.609375 83.1921875,276.204687 L83.1921875,276.204687 L83.1921875,281 L84.8515625,281 L84.8515625,276.879687 C84.8515625,276.05 85.0003906,275.434766 85.2980469,275.033984 C85.5957031,274.633203 86.065625,274.432813 86.7078125,274.432813 C87.1859375,274.432813 87.5386719,274.579297 87.7660156,274.872266 C87.9933594,275.165234 88.1070313,275.609375 88.1070313,276.204687 L88.1070313,276.204687 L88.1070313,281 L89.759375,281 L89.759375,275.930469 C89.759375,274.969531 89.5472656,274.254687 89.1230469,273.785937 C88.6988281,273.317187 88.0226562,273.082812 87.0945313,273.082812 C86.5554688,273.082812 86.0773438,273.190625 85.6601562,273.40625 C85.2429687,273.621875 84.9195313,273.921875 84.6898437,274.30625 L84.6898437,274.30625 L84.5773437,274.30625 C84.1882813,273.490625 83.3960938,273.082812 82.2007813,273.082812 C81.7085938,273.082812 81.2574219,273.183594 80.8472656,273.385156 C80.4371094,273.586719 80.1242188,273.872656 79.9085937,274.242969 L79.9085937,274.242969 L79.8242188,274.242969 L79.5921875,273.223437 L78.2984375,273.223437 L78.2984375,281 L79.9507813,281 Z M93.95,281.140625 C94.5453125,281.140625 95.0328125,281.055078 95.4125,280.883984 C95.7921875,280.712891 96.1695313,280.390625 96.5445313,279.917188 L96.5445313,279.917188 L96.6007812,279.917188 L96.93125,281 L98.1125,281 L98.1125,275.761719 C98.1125,274.838281 97.8605469,274.160937 97.3566406,273.729688 C96.8527344,273.298437 96.10625,273.082812 95.1171875,273.082812 C94.671875,273.082812 94.1984375,273.140234 93.696875,273.255078 C93.1953125,273.369922 92.7335937,273.5375 92.3117187,273.757812 L92.3117187,273.757812 L92.8460937,274.939062 C93.1835938,274.779687 93.5351562,274.641406 93.9007812,274.524219 C94.2664062,274.407031 94.6484375,274.348437 95.046875,274.348437 C95.534375,274.348437 95.8941406,274.471484 96.1261719,274.717578 C96.3582031,274.963672 96.4742188,275.335156 96.4742188,275.832031 L96.4742188,275.832031 L96.4742188,276.246875 L95.13125,276.289062 C93.9125,276.326562 93.0054688,276.549219 92.4101562,276.957031 C91.8148437,277.364844 91.5171875,277.969531 91.5171875,278.771094 C91.5171875,279.525781 91.7316406,280.109375 92.1605469,280.521875 C92.5894531,280.934375 93.1859375,281.140625 93.95,281.140625 Z M94.4703125,279.875 C94.0578125,279.875 93.7484375,279.780078 93.5421875,279.590234 C93.3359375,279.400391 93.2328125,279.132031 93.2328125,278.785156 C93.2328125,278.307031 93.4097656,277.951953 93.7636719,277.719922 C94.1175781,277.487891 94.6835938,277.357812 95.4617187,277.329687 L95.4617187,277.329687 L96.4601562,277.2875 L96.4601562,277.9625 C96.4601562,278.567187 96.2785156,279.037109 95.9152344,279.372266 C95.5519531,279.707422 95.0703125,279.875 94.4703125,279.875 Z M102.921875,281.140625 C103.23125,281.140625 103.530078,281.113672 103.818359,281.059766 C104.106641,281.005859 104.342187,280.939063 104.525,280.859375 L104.525,280.859375 L104.525,279.614844 C104.121875,279.741406 103.71875,279.804688 103.315625,279.804688 C102.992188,279.804688 102.730859,279.709766 102.531641,279.519922 C102.332422,279.330078 102.232812,279.035937 102.232812,278.6375 L102.232812,278.6375 L102.232812,274.475 L104.447656,274.475 L104.447656,273.223437 L102.232812,273.223437 L102.232812,271.49375 L101.213281,271.49375 L100.650781,273.139063 L99.5117188,273.74375 L99.5117188,274.475 L100.573437,274.475 L100.573437,278.665625 C100.573437,280.315625 101.35625,281.140625 102.921875,281.140625 Z M109.475,281.140625 C110.004688,281.140625 110.475781,281.100781 110.888281,281.021094 C111.300781,280.941406 111.708594,280.805469 112.111719,280.613281 L112.111719,280.613281 L112.111719,279.270312 C111.657031,279.471875 111.231641,279.616016 110.835547,279.702734 C110.439453,279.789453 110.011719,279.832812 109.552344,279.832812 C108.853906,279.832812 108.3125,279.630078 107.928125,279.224609 C107.54375,278.819141 107.339844,278.239062 107.316406,277.484375 L107.316406,277.484375 L112.498437,277.484375 L112.498437,276.591406 C112.498437,275.499219 112.200781,274.641406 111.605469,274.017969 C111.010156,273.394531 110.199219,273.082812 109.172656,273.082812 C108.066406,273.082812 107.196875,273.446094 106.564063,274.172656 C105.93125,274.899219 105.614844,275.897656 105.614844,277.167969 C105.614844,278.405469 105.955859,279.376953 106.637891,280.082422 C107.319922,280.787891 108.265625,281.140625 109.475,281.140625 Z M110.874219,276.289062 L107.344531,276.289062 C107.405469,275.651563 107.594141,275.166406 107.910547,274.833594 C108.226953,274.500781 108.647656,274.334375 109.172656,274.334375 C109.697656,274.334375 110.110156,274.499609 110.410156,274.830078 C110.710156,275.160547 110.864844,275.646875 110.874219,276.289062 L110.874219,276.289062 Z" id="Automate" fill="#252525" fill-rule="nonzero"></path>
                        <path d="M257.171875,85 L257.171875,83.5726562 L253.0375,83.5726562 L253.0375,80.3453125 L256.911719,80.3453125 L256.911719,78.9390625 L253.0375,78.9390625 L253.0375,76.140625 L257.171875,76.140625 L257.171875,74.7203125 L251.357031,74.7203125 L251.357031,85 L257.171875,85 Z M261.840625,85.140625 C262.8625,85.140625 263.638281,84.7539062 264.167969,83.9804688 L264.167969,83.9804688 L264.245313,83.9804688 L264.533594,85 L265.827344,85 L265.827344,74.059375 L264.167969,74.059375 L264.167969,76.8929687 C264.167969,77.2164062 264.207812,77.6570313 264.2875,78.2148438 L264.2875,78.2148438 L264.203125,78.2148438 C263.66875,77.4601562 262.890625,77.0828125 261.86875,77.0828125 C260.89375,77.0828125 260.130859,77.4378906 259.580078,78.1480469 C259.029297,78.8582031 258.753906,79.8507812 258.753906,81.1257813 C258.753906,82.3960938 259.025781,83.3828125 259.569531,84.0859375 C260.113281,84.7890625 260.870313,85.140625 261.840625,85.140625 Z M262.283594,83.8046875 C261.674219,83.8046875 261.217188,83.5785156 260.9125,83.1261719 C260.607813,82.6738281 260.455469,82.0164063 260.455469,81.1539063 C260.455469,80.2820313 260.6125,79.6105469 260.926562,79.1394531 C261.240625,78.6683594 261.688281,78.4328125 262.269531,78.4328125 C262.949219,78.4328125 263.448438,78.6390625 263.767187,79.0515625 C264.085938,79.4640625 264.245313,80.1601562 264.245313,81.1398437 L264.245313,81.1398437 L264.245313,81.371875 C264.235937,82.2296875 264.076562,82.8496094 263.767187,83.2316406 C263.457812,83.6136719 262.963281,83.8046875 262.283594,83.8046875 Z M270.925,85.140625 C271.46875,85.140625 271.952734,85.0375 272.376953,84.83125 C272.801172,84.625 273.128125,84.3414062 273.357813,83.9804688 L273.357813,83.9804688 L273.442187,83.9804688 L273.674219,85 L274.975,85 L274.975,77.2234375 L273.315625,77.2234375 L273.315625,81.0976562 C273.315625,82.0726563 273.152734,82.7675781 272.826953,83.1824219 C272.501172,83.5972656 271.991406,83.8046875 271.297656,83.8046875 C270.777344,83.8046875 270.395312,83.6558594 270.151563,83.3582031 C269.907812,83.0605469 269.785937,82.6140625 269.785937,82.01875 L269.785937,82.01875 L269.785937,77.2234375 L268.119531,77.2234375 L268.119531,82.3070312 C268.119531,83.2585938 268.351562,83.96875 268.815625,84.4375 C269.279688,84.90625 269.982813,85.140625 270.925,85.140625 Z M280.466406,85.140625 C280.944531,85.140625 281.351172,85.103125 281.686328,85.028125 C282.021484,84.953125 282.336719,84.8289063 282.632031,84.6554687 L282.632031,84.6554687 L282.632031,83.2140625 C281.975781,83.5796875 281.279688,83.7625 280.54375,83.7625 C279.896875,83.7625 279.405859,83.5433594 279.070703,83.1050781 C278.735547,82.6667969 278.567969,82.0117188 278.567969,81.1398437 C278.567969,79.3539062 279.240625,78.4609375 280.585938,78.4609375 C281.040625,78.4609375 281.617188,78.596875 282.315625,78.86875 L282.315625,78.86875 L282.814844,77.5398438 C282.158594,77.2351563 281.420313,77.0828125 280.6,77.0828125 C279.390625,77.0828125 278.466016,77.434375 277.826172,78.1375 C277.186328,78.840625 276.866406,79.8460938 276.866406,81.1539063 C276.866406,82.4382813 277.172266,83.4238281 277.783984,84.1105469 C278.395703,84.7972656 279.289844,85.140625 280.466406,85.140625 Z M286.344531,85.140625 C286.939844,85.140625 287.427344,85.0550781 287.807031,84.8839844 C288.186719,84.7128906 288.564062,84.390625 288.939062,83.9171875 L288.939062,83.9171875 L288.995313,83.9171875 L289.325781,85 L290.507031,85 L290.507031,79.7617188 C290.507031,78.8382813 290.255078,78.1609375 289.751172,77.7296875 C289.247266,77.2984375 288.500781,77.0828125 287.511719,77.0828125 C287.066406,77.0828125 286.592969,77.1402344 286.091406,77.2550781 C285.589844,77.3699219 285.128125,77.5375 284.70625,77.7578125 L284.70625,77.7578125 L285.240625,78.9390625 C285.578125,78.7796875 285.929688,78.6414063 286.295313,78.5242188 C286.660937,78.4070313 287.042969,78.3484375 287.441406,78.3484375 C287.928906,78.3484375 288.288672,78.4714844 288.520703,78.7175781 C288.752734,78.9636719 288.86875,79.3351562 288.86875,79.8320312 L288.86875,79.8320312 L288.86875,80.246875 L287.525781,80.2890625 C286.307031,80.3265625 285.4,80.5492188 284.804688,80.9570312 C284.209375,81.3648437 283.911719,81.9695313 283.911719,82.7710938 C283.911719,83.5257813 284.126172,84.109375 284.555078,84.521875 C284.983984,84.934375 285.580469,85.140625 286.344531,85.140625 Z M286.864844,83.875 C286.452344,83.875 286.142969,83.7800781 285.936719,83.5902344 C285.730469,83.4003906 285.627344,83.1320312 285.627344,82.7851562 C285.627344,82.3070313 285.804297,81.9519531 286.158203,81.7199219 C286.512109,81.4878906 287.078125,81.3578125 287.85625,81.3296875 L287.85625,81.3296875 L288.854688,81.2875 L288.854688,81.9625 C288.854688,82.5671875 288.673047,83.0371094 288.309766,83.3722656 C287.946484,83.7074219 287.464844,83.875 286.864844,83.875 Z M295.316406,85.140625 C295.625781,85.140625 295.924609,85.1136719 296.212891,85.0597656 C296.501172,85.0058594 296.736719,84.9390625 296.919531,84.859375 L296.919531,84.859375 L296.919531,83.6148438 C296.516406,83.7414062 296.113281,83.8046875 295.710156,83.8046875 C295.386719,83.8046875 295.125391,83.7097656 294.926172,83.5199219 C294.726953,83.3300781 294.627344,83.0359375 294.627344,82.6375 L294.627344,82.6375 L294.627344,78.475 L296.842188,78.475 L296.842188,77.2234375 L294.627344,77.2234375 L294.627344,75.49375 L293.607813,75.49375 L293.045313,77.1390625 L291.90625,77.74375 L291.90625,78.475 L292.967969,78.475 L292.967969,82.665625 C292.967969,84.315625 293.750781,85.140625 295.316406,85.140625 Z M301.869531,85.140625 C302.399219,85.140625 302.870313,85.1007812 303.282812,85.0210938 C303.695312,84.9414062 304.103125,84.8054688 304.50625,84.6132812 L304.50625,84.6132812 L304.50625,83.2703125 C304.051562,83.471875 303.626172,83.6160156 303.230078,83.7027344 C302.833984,83.7894531 302.40625,83.8328125 301.946875,83.8328125 C301.248437,83.8328125 300.707031,83.6300781 300.322656,83.2246094 C299.938281,82.8191406 299.734375,82.2390625 299.710938,81.484375 L299.710938,81.484375 L304.892969,81.484375 L304.892969,80.5914063 C304.892969,79.4992187 304.595313,78.6414063 304,78.0179687 C303.404687,77.3945312 302.59375,77.0828125 301.567187,77.0828125 C300.460938,77.0828125 299.591406,77.4460938 298.958594,78.1726563 C298.325781,78.8992188 298.009375,79.8976562 298.009375,81.1679688 C298.009375,82.4054687 298.350391,83.3769531 299.032422,84.0824219 C299.714453,84.7878906 300.660156,85.140625 301.869531,85.140625 Z M303.26875,80.2890625 L299.739062,80.2890625 C299.8,79.6515625 299.988672,79.1664063 300.305078,78.8335938 C300.621484,78.5007813 301.042188,78.334375 301.567187,78.334375 C302.092188,78.334375 302.504687,78.4996094 302.804688,78.8300781 C303.104688,79.1605469 303.259375,79.646875 303.26875,80.2890625 L303.26875,80.2890625 Z" id="Educate" fill="#292929" fill-rule="nonzero"></path>
                        <path d="M247.771875,281 L248.777344,278.145312 L252.707812,278.145312 L253.734375,281 L255.520312,281 L251.674219,270.678125 L249.846094,270.678125 L246,281 L247.771875,281 Z M252.264844,276.696875 L249.269531,276.696875 L250.197656,274.017969 C250.441406,273.333594 250.626563,272.703125 250.753125,272.126562 C250.8,272.314062 250.885547,272.609375 251.009766,273.0125 C251.133984,273.415625 251.23125,273.710938 251.301562,273.898438 L251.301562,273.898438 L252.264844,276.696875 Z M259.436719,281.140625 C259.980469,281.140625 260.464453,281.0375 260.888672,280.83125 C261.312891,280.625 261.639844,280.341406 261.869531,279.980469 L261.869531,279.980469 L261.953906,279.980469 L262.185938,281 L263.486719,281 L263.486719,273.223437 L261.827344,273.223437 L261.827344,277.097656 C261.827344,278.072656 261.664453,278.767578 261.338672,279.182422 C261.012891,279.597266 260.503125,279.804688 259.809375,279.804688 C259.289062,279.804688 258.907031,279.655859 258.663281,279.358203 C258.419531,279.060547 258.297656,278.614062 258.297656,278.01875 L258.297656,278.01875 L258.297656,273.223437 L256.63125,273.223437 L256.63125,278.307031 C256.63125,279.258594 256.863281,279.96875 257.327344,280.4375 C257.791406,280.90625 258.494531,281.140625 259.436719,281.140625 Z M268.085156,284.459375 C269.458594,284.459375 270.508594,284.220313 271.235156,283.742188 C271.961719,283.264062 272.325,282.584375 272.325,281.703125 C272.325,281.014062 272.102344,280.486719 271.657031,280.121094 C271.211719,279.755469 270.560156,279.572656 269.702344,279.572656 L269.702344,279.572656 L268.345312,279.572656 C267.9,279.572656 267.594141,279.528125 267.427734,279.439062 C267.261328,279.35 267.178125,279.216406 267.178125,279.038281 C267.178125,278.742969 267.35625,278.485156 267.7125,278.264844 C267.914062,278.302344 268.139063,278.321094 268.3875,278.321094 C269.357813,278.321094 270.119531,278.091406 270.672656,277.632031 C271.225781,277.172656 271.502344,276.542188 271.502344,275.740625 C271.502344,275.473437 271.4625,275.220312 271.382812,274.98125 C271.303125,274.742188 271.202344,274.540625 271.080469,274.376562 L271.080469,274.376562 L272.409375,274.130469 L272.409375,273.223437 L269.716406,273.223437 C269.594531,273.190625 269.412891,273.158984 269.171484,273.128516 C268.930078,273.098047 268.699219,273.082812 268.478906,273.082812 C267.494531,273.082812 266.736328,273.314844 266.204297,273.778906 C265.672266,274.242969 265.40625,274.896875 265.40625,275.740625 C265.40625,276.265625 265.531641,276.723828 265.782422,277.115234 C266.033203,277.506641 266.360156,277.789062 266.763281,277.9625 C266.439844,278.159375 266.196094,278.358594 266.032031,278.560156 C265.867969,278.761719 265.785937,279.007812 265.785937,279.298437 C265.785937,279.528125 265.857422,279.747266 266.000391,279.955859 C266.143359,280.164453 266.325,280.315625 266.545313,280.409375 C266.001563,280.535937 265.578516,280.762109 265.276172,281.087891 C264.973828,281.413672 264.822656,281.815625 264.822656,282.29375 C264.822656,282.9875 265.101562,283.521875 265.659375,283.896875 C266.217188,284.271875 267.025781,284.459375 268.085156,284.459375 Z M268.464844,277.259375 C267.996094,277.259375 267.636328,277.128125 267.385547,276.865625 C267.134766,276.603125 267.009375,276.228125 267.009375,275.740625 C267.009375,275.220313 267.132422,274.824219 267.378516,274.552344 C267.624609,274.280469 267.986719,274.144531 268.464844,274.144531 C268.947656,274.144531 269.307422,274.281641 269.544141,274.555859 C269.780859,274.830078 269.899219,275.220313 269.899219,275.726562 C269.899219,276.748437 269.421094,277.259375 268.464844,277.259375 Z M268.134375,283.320312 C267.553125,283.320312 267.101953,283.224219 266.780859,283.032031 C266.459766,282.839844 266.299219,282.565625 266.299219,282.209375 C266.299219,281.829688 266.438672,281.528516 266.717578,281.305859 C266.996484,281.083203 267.372656,280.971875 267.846094,280.971875 L267.846094,280.971875 L269.097656,280.971875 C269.753906,280.971875 270.202734,281.043359 270.444141,281.186328 C270.685547,281.329297 270.80625,281.569531 270.80625,281.907031 C270.80625,282.333594 270.585938,282.675781 270.145312,282.933594 C269.704687,283.191406 269.034375,283.320312 268.134375,283.320312 Z M275.503125,281 L275.503125,277.125781 C275.503125,276.160156 275.651953,275.469922 275.949609,275.055078 C276.247266,274.640234 276.714844,274.432813 277.352344,274.432813 C277.830469,274.432813 278.182031,274.579297 278.407031,274.872266 C278.632031,275.165234 278.744531,275.609375 278.744531,276.204687 L278.744531,276.204687 L278.744531,281 L280.403906,281 L280.403906,276.879687 C280.403906,276.05 280.552734,275.434766 280.850391,275.033984 C281.148047,274.633203 281.617969,274.432813 282.260156,274.432813 C282.738281,274.432813 283.091016,274.579297 283.318359,274.872266 C283.545703,275.165234 283.659375,275.609375 283.659375,276.204687 L283.659375,276.204687 L283.659375,281 L285.311719,281 L285.311719,275.930469 C285.311719,274.969531 285.099609,274.254687 284.675391,273.785937 C284.251172,273.317187 283.575,273.082812 282.646875,273.082812 C282.107813,273.082812 281.629687,273.190625 281.2125,273.40625 C280.795312,273.621875 280.471875,273.921875 280.242188,274.30625 L280.242188,274.30625 L280.129687,274.30625 C279.740625,273.490625 278.948438,273.082812 277.753125,273.082812 C277.260938,273.082812 276.809766,273.183594 276.399609,273.385156 C275.989453,273.586719 275.676562,273.872656 275.460938,274.242969 L275.460938,274.242969 L275.376562,274.242969 L275.144531,273.223437 L273.850781,273.223437 L273.850781,281 L275.503125,281 Z M291.014063,281.140625 C291.54375,281.140625 292.014844,281.100781 292.427344,281.021094 C292.839844,280.941406 293.247656,280.805469 293.650781,280.613281 L293.650781,280.613281 L293.650781,279.270312 C293.196094,279.471875 292.770703,279.616016 292.374609,279.702734 C291.978516,279.789453 291.550781,279.832812 291.091406,279.832812 C290.392969,279.832812 289.851562,279.630078 289.467188,279.224609 C289.082812,278.819141 288.878906,278.239062 288.855469,277.484375 L288.855469,277.484375 L294.0375,277.484375 L294.0375,276.591406 C294.0375,275.499219 293.739844,274.641406 293.144531,274.017969 C292.549219,273.394531 291.738281,273.082812 290.711719,273.082812 C289.605469,273.082812 288.735937,273.446094 288.103125,274.172656 C287.470312,274.899219 287.153906,275.897656 287.153906,277.167969 C287.153906,278.405469 287.494922,279.376953 288.176953,280.082422 C288.858984,280.787891 289.804688,281.140625 291.014063,281.140625 Z M292.413281,276.289062 L288.883594,276.289062 C288.944531,275.651563 289.133203,275.166406 289.449609,274.833594 C289.766016,274.500781 290.186719,274.334375 290.711719,274.334375 C291.236719,274.334375 291.649219,274.499609 291.949219,274.830078 C292.249219,275.160547 292.403906,275.646875 292.413281,276.289062 L292.413281,276.289062 Z M297.567187,281 L297.567187,277.125781 C297.567187,276.155469 297.728906,275.464063 298.052344,275.051562 C298.375781,274.639063 298.886719,274.432813 299.585156,274.432813 C300.110156,274.432813 300.493359,274.580469 300.734766,274.875781 C300.976172,275.171094 301.096875,275.61875 301.096875,276.21875 L301.096875,276.21875 L301.096875,281 L302.75625,281 L302.75625,275.930469 C302.75625,274.032031 301.823438,273.082812 299.957812,273.082812 C299.432813,273.082812 298.954688,273.183594 298.523438,273.385156 C298.092187,273.586719 297.759375,273.872656 297.525,274.242969 L297.525,274.242969 L297.440625,274.242969 L297.208594,273.223437 L295.914844,273.223437 L295.914844,281 L297.567187,281 Z M307.558594,281.140625 C307.867969,281.140625 308.166797,281.113672 308.455078,281.059766 C308.743359,281.005859 308.978906,280.939063 309.161719,280.859375 L309.161719,280.859375 L309.161719,279.614844 C308.758594,279.741406 308.355469,279.804688 307.952344,279.804688 C307.628906,279.804688 307.367578,279.709766 307.168359,279.519922 C306.969141,279.330078 306.869531,279.035937 306.869531,278.6375 L306.869531,278.6375 L306.869531,274.475 L309.084375,274.475 L309.084375,273.223437 L306.869531,273.223437 L306.869531,271.49375 L305.85,271.49375 L305.2875,273.139063 L304.148438,273.74375 L304.148438,274.475 L305.210156,274.475 L305.210156,278.665625 C305.210156,280.315625 305.992969,281.140625 307.558594,281.140625 Z" id="Augment" fill="#252525" fill-rule="nonzero"></path>
                        <circle id="Oval-Copy-10" fill="#B7B7B7" opacity="0.706094899" cx="180.8" cy="180.8" r="98.8"></circle>
                        <path d="M151.0375,186 L151.0375,175.720313 L149.357031,175.720313 L149.357031,186 L151.0375,186 Z M155.228125,186 L155.228125,182.125781 C155.228125,181.155469 155.389844,180.464062 155.713281,180.051562 C156.036719,179.639062 156.547656,179.432813 157.246094,179.432813 C157.771094,179.432813 158.154297,179.580469 158.395703,179.875781 C158.637109,180.171094 158.757812,180.61875 158.757812,181.21875 L158.757812,181.21875 L158.757812,186 L160.417188,186 L160.417188,180.930469 C160.417188,179.032031 159.484375,178.082812 157.61875,178.082812 C157.09375,178.082812 156.615625,178.183594 156.184375,178.385156 C155.753125,178.586719 155.420312,178.872656 155.185937,179.242969 L155.185937,179.242969 L155.101562,179.242969 L154.869531,178.223437 L153.575781,178.223437 L153.575781,186 L155.228125,186 Z M165.219531,186.140625 C165.528906,186.140625 165.827734,186.113672 166.116016,186.059766 C166.404297,186.005859 166.639844,185.939063 166.822656,185.859375 L166.822656,185.859375 L166.822656,184.614844 C166.419531,184.741406 166.016406,184.804688 165.613281,184.804688 C165.289844,184.804688 165.028516,184.709766 164.829297,184.519922 C164.630078,184.330078 164.530469,184.035937 164.530469,183.6375 L164.530469,183.6375 L164.530469,179.475 L166.745313,179.475 L166.745313,178.223437 L164.530469,178.223437 L164.530469,176.49375 L163.510938,176.49375 L162.948438,178.139062 L161.809375,178.74375 L161.809375,179.475 L162.871094,179.475 L162.871094,183.665625 C162.871094,185.315625 163.653906,186.140625 165.219531,186.140625 Z M171.772656,186.140625 C172.302344,186.140625 172.773438,186.100781 173.185937,186.021094 C173.598437,185.941406 174.00625,185.805469 174.409375,185.613281 L174.409375,185.613281 L174.409375,184.270312 C173.954688,184.471875 173.529297,184.616016 173.133203,184.702734 C172.737109,184.789453 172.309375,184.832812 171.85,184.832812 C171.151563,184.832812 170.610156,184.630078 170.225781,184.224609 C169.841406,183.819141 169.6375,183.239063 169.614062,182.484375 L169.614062,182.484375 L174.796094,182.484375 L174.796094,181.591406 C174.796094,180.499219 174.498437,179.641406 173.903125,179.017969 C173.307812,178.394531 172.496875,178.082812 171.470313,178.082812 C170.364062,178.082812 169.494531,178.446094 168.861719,179.172656 C168.228906,179.899219 167.9125,180.897656 167.9125,182.167969 C167.9125,183.405469 168.253516,184.376953 168.935547,185.082422 C169.617578,185.787891 170.563281,186.140625 171.772656,186.140625 Z M173.171875,181.289062 L169.642188,181.289062 C169.703125,180.651562 169.891797,180.166406 170.208203,179.833594 C170.524609,179.500781 170.945312,179.334375 171.470313,179.334375 C171.995313,179.334375 172.407813,179.499609 172.707812,179.830078 C173.007812,180.160547 173.1625,180.646875 173.171875,181.289062 L173.171875,181.289062 Z M178.916406,189.459375 C180.289844,189.459375 181.339844,189.220313 182.066406,188.742188 C182.792969,188.264062 183.15625,187.584375 183.15625,186.703125 C183.15625,186.014062 182.933594,185.486719 182.488281,185.121094 C182.042969,184.755469 181.391406,184.572656 180.533594,184.572656 L180.533594,184.572656 L179.176562,184.572656 C178.73125,184.572656 178.425391,184.528125 178.258984,184.439063 C178.092578,184.35 178.009375,184.216406 178.009375,184.038281 C178.009375,183.742969 178.1875,183.485156 178.54375,183.264844 C178.745312,183.302344 178.970313,183.321094 179.21875,183.321094 C180.189063,183.321094 180.950781,183.091406 181.503906,182.632031 C182.057031,182.172656 182.333594,181.542188 182.333594,180.740625 C182.333594,180.473437 182.29375,180.220313 182.214063,179.98125 C182.134375,179.742188 182.033594,179.540625 181.911719,179.376563 L181.911719,179.376563 L183.240625,179.130469 L183.240625,178.223437 L180.547656,178.223437 C180.425781,178.190625 180.244141,178.158984 180.002734,178.128516 C179.761328,178.098047 179.530469,178.082812 179.310156,178.082812 C178.325781,178.082812 177.567578,178.314844 177.035547,178.778906 C176.503516,179.242969 176.2375,179.896875 176.2375,180.740625 C176.2375,181.265625 176.362891,181.723828 176.613672,182.115234 C176.864453,182.506641 177.191406,182.789062 177.594531,182.9625 C177.271094,183.159375 177.027344,183.358594 176.863281,183.560156 C176.699219,183.761719 176.617188,184.007812 176.617188,184.298438 C176.617188,184.528125 176.688672,184.747266 176.831641,184.955859 C176.974609,185.164453 177.15625,185.315625 177.376563,185.409375 C176.832812,185.535938 176.409766,185.762109 176.107422,186.087891 C175.805078,186.413672 175.653906,186.815625 175.653906,187.29375 C175.653906,187.9875 175.932813,188.521875 176.490625,188.896875 C177.048438,189.271875 177.857031,189.459375 178.916406,189.459375 Z M179.296094,182.259375 C178.827344,182.259375 178.467578,182.128125 178.216797,181.865625 C177.966016,181.603125 177.840625,181.228125 177.840625,180.740625 C177.840625,180.220313 177.963672,179.824219 178.209766,179.552344 C178.455859,179.280469 178.817969,179.144531 179.296094,179.144531 C179.778906,179.144531 180.138672,179.281641 180.375391,179.555859 C180.612109,179.830078 180.730469,180.220313 180.730469,180.726562 C180.730469,181.748437 180.252344,182.259375 179.296094,182.259375 Z M178.965625,188.320312 C178.384375,188.320312 177.933203,188.224219 177.612109,188.032031 C177.291016,187.839844 177.130469,187.565625 177.130469,187.209375 C177.130469,186.829688 177.269922,186.528516 177.548828,186.305859 C177.827734,186.083203 178.203906,185.971875 178.677344,185.971875 L178.677344,185.971875 L179.928906,185.971875 C180.585156,185.971875 181.033984,186.043359 181.275391,186.186328 C181.516797,186.329297 181.6375,186.569531 181.6375,186.907031 C181.6375,187.333594 181.417187,187.675781 180.976562,187.933594 C180.535938,188.191406 179.865625,188.320312 178.965625,188.320312 Z M186.334375,186 L186.334375,181.935937 C186.334375,181.246875 186.539453,180.686719 186.949609,180.255469 C187.359766,179.824219 187.895312,179.608594 188.55625,179.608594 C188.809375,179.608594 189.053125,179.636719 189.2875,179.692969 L189.2875,179.692969 L189.449219,178.153125 C189.233594,178.10625 188.959375,178.082812 188.626563,178.082812 C188.148438,178.082812 187.701953,178.21875 187.287109,178.490625 C186.872266,178.7625 186.535937,179.130469 186.278125,179.594531 L186.278125,179.594531 L186.19375,179.594531 L185.975781,178.223437 L184.682031,178.223437 L184.682031,186 L186.334375,186 Z M192.775,186.140625 C193.370313,186.140625 193.857812,186.055078 194.2375,185.883984 C194.617188,185.712891 194.994531,185.390625 195.369531,184.917188 L195.369531,184.917188 L195.425781,184.917188 L195.75625,186 L196.9375,186 L196.9375,180.761719 C196.9375,179.838281 196.685547,179.160938 196.181641,178.729688 C195.677734,178.298438 194.93125,178.082812 193.942187,178.082812 C193.496875,178.082812 193.023438,178.140234 192.521875,178.255078 C192.020312,178.369922 191.558594,178.5375 191.136719,178.757812 L191.136719,178.757812 L191.671094,179.939063 C192.008594,179.779687 192.360156,179.641406 192.725781,179.524219 C193.091406,179.407031 193.473437,179.348437 193.871875,179.348437 C194.359375,179.348437 194.719141,179.471484 194.951172,179.717578 C195.183203,179.963672 195.299219,180.335156 195.299219,180.832031 L195.299219,180.832031 L195.299219,181.246875 L193.95625,181.289062 C192.7375,181.326562 191.830469,181.549219 191.235156,181.957031 C190.639844,182.364844 190.342187,182.969531 190.342187,183.771094 C190.342187,184.525781 190.556641,185.109375 190.985547,185.521875 C191.414453,185.934375 192.010938,186.140625 192.775,186.140625 Z M193.295312,184.875 C192.882812,184.875 192.573437,184.780078 192.367188,184.590234 C192.160938,184.400391 192.057813,184.132031 192.057813,183.785156 C192.057813,183.307031 192.234766,182.951953 192.588672,182.719922 C192.942578,182.487891 193.508594,182.357812 194.286719,182.329688 L194.286719,182.329688 L195.285156,182.2875 L195.285156,182.9625 C195.285156,183.567187 195.103516,184.037109 194.740234,184.372266 C194.376953,184.707422 193.895312,184.875 193.295312,184.875 Z M201.746875,186.140625 C202.05625,186.140625 202.355078,186.113672 202.643359,186.059766 C202.931641,186.005859 203.167188,185.939063 203.35,185.859375 L203.35,185.859375 L203.35,184.614844 C202.946875,184.741406 202.54375,184.804688 202.140625,184.804688 C201.817188,184.804688 201.555859,184.709766 201.356641,184.519922 C201.157422,184.330078 201.057813,184.035937 201.057813,183.6375 L201.057813,183.6375 L201.057813,179.475 L203.272656,179.475 L203.272656,178.223437 L201.057813,178.223437 L201.057813,176.49375 L200.038281,176.49375 L199.475781,178.139062 L198.336719,178.74375 L198.336719,179.475 L199.398438,179.475 L199.398438,183.665625 C199.398438,185.315625 200.18125,186.140625 201.746875,186.140625 Z M208.3,186.140625 C208.829688,186.140625 209.300781,186.100781 209.713281,186.021094 C210.125781,185.941406 210.533594,185.805469 210.936719,185.613281 L210.936719,185.613281 L210.936719,184.270312 C210.482031,184.471875 210.056641,184.616016 209.660547,184.702734 C209.264453,184.789453 208.836719,184.832812 208.377344,184.832812 C207.678906,184.832812 207.1375,184.630078 206.753125,184.224609 C206.36875,183.819141 206.164844,183.239063 206.141406,182.484375 L206.141406,182.484375 L211.323438,182.484375 L211.323438,181.591406 C211.323438,180.499219 211.025781,179.641406 210.430469,179.017969 C209.835156,178.394531 209.024219,178.082812 207.997656,178.082812 C206.891406,178.082812 206.021875,178.446094 205.389062,179.172656 C204.75625,179.899219 204.439844,180.897656 204.439844,182.167969 C204.439844,183.405469 204.780859,184.376953 205.462891,185.082422 C206.144922,185.787891 207.090625,186.140625 208.3,186.140625 Z M209.699219,181.289062 L206.169531,181.289062 C206.230469,180.651562 206.419141,180.166406 206.735547,179.833594 C207.051953,179.500781 207.472656,179.334375 207.997656,179.334375 C208.522656,179.334375 208.935156,179.499609 209.235156,179.830078 C209.535156,180.160547 209.689844,180.646875 209.699219,181.289062 L209.699219,181.289062 Z" id="Integrate" fill="#292929" fill-rule="nonzero"></path>
                    </g>
                </g>
            </g>
        </g>
    </g>
</svg>